<svg width="731" height="583" viewBox="0 0 731 583" fill="none" xmlns="http://www.w3.org/2000/svg">
<path d="M1 217.5C1 418.806 164.19 582 365.5 582C566.806 582 729.997 418.806 729.997 217.5C729.997 16.1936 566.806 -147 365.5 -147C164.19 -147 1 16.1936 1 217.5Z" stroke="url(#paint0_linear)" stroke-width="0.938473" stroke-miterlimit="10"/>
<path d="M27.3347 217.5C27.3347 404.261 178.735 555.662 365.5 555.662C552.261 555.662 703.662 404.261 703.662 217.5C703.662 30.7391 552.261 -120.661 365.5 -120.661C178.735 -120.661 27.3347 30.7391 27.3347 217.5V217.5Z" stroke="url(#paint1_linear)" stroke-width="0.917377" stroke-miterlimit="10"/>
<path d="M53.6729 217.5C53.6729 389.715 193.284 529.327 365.5 529.327C537.716 529.327 677.323 389.715 677.323 217.5C677.323 45.2836 537.716 -94.324 365.5 -94.324C193.284 -94.324 53.6729 45.2836 53.6729 217.5V217.5Z" stroke="url(#paint2_linear)" stroke-width="0.896281" stroke-miterlimit="10"/>
<path d="M80.0112 217.5C80.0112 375.17 207.829 502.989 365.5 502.989C523.167 502.989 650.986 375.17 650.986 217.5C650.986 59.829 523.167 -67.9855 365.5 -67.9855C207.829 -67.9855 80.0112 59.829 80.0112 217.5V217.5Z" stroke="url(#paint3_linear)" stroke-width="0.875184" stroke-miterlimit="10"/>
<path d="M106.349 217.5C106.349 360.625 222.375 476.65 365.5 476.65C508.622 476.65 624.647 360.625 624.647 217.5C624.647 74.3742 508.622 -41.651 365.5 -41.651C222.375 -41.651 106.349 74.3742 106.349 217.5V217.5Z" stroke="url(#paint4_linear)" stroke-width="0.854088" stroke-miterlimit="10"/>
<path d="M132.688 217.5C132.688 346.077 236.92 450.312 365.5 450.312C494.077 450.312 598.309 346.077 598.309 217.5C598.309 88.9234 494.077 -15.3125 365.5 -15.3125C236.92 -15.3125 132.688 88.9234 132.688 217.5Z" stroke="url(#paint5_linear)" stroke-width="0.832992" stroke-miterlimit="10"/>
<path d="M159.022 217.5C159.022 331.532 251.465 423.974 365.5 423.974C479.532 423.974 571.975 331.532 571.975 217.5C571.975 103.469 479.532 11.026 365.5 11.026C251.465 11.026 159.022 103.469 159.022 217.5V217.5Z" stroke="url(#paint6_linear)" stroke-width="0.811895" stroke-miterlimit="10"/>
<path d="M185.36 217.5C185.36 316.986 266.01 397.636 365.5 397.636C464.986 397.636 545.636 316.986 545.636 217.5C545.636 118.014 464.986 37.3639 365.5 37.3639C266.01 37.3639 185.36 118.014 185.36 217.5V217.5Z" stroke="url(#paint7_linear)" stroke-width="0.790799" stroke-miterlimit="10"/>
<path d="M211.699 217.5C211.699 302.441 280.556 371.301 365.5 371.301C450.441 371.301 519.298 302.441 519.298 217.5C519.298 132.559 450.441 63.702 365.5 63.702C280.556 63.702 211.699 132.559 211.699 217.5V217.5Z" stroke="url(#paint8_linear)" stroke-width="0.769703" stroke-miterlimit="10"/>
<path d="M238.037 217.5C238.037 287.895 295.104 344.963 365.5 344.963C435.896 344.963 492.96 287.895 492.96 217.5C492.96 147.104 435.896 90.0365 365.5 90.0365C295.104 90.0365 238.037 147.104 238.037 217.5Z" stroke="url(#paint9_linear)" stroke-width="0.748605" stroke-miterlimit="10"/>
<path d="M264.375 217.5C264.375 273.35 309.65 318.625 365.5 318.625C421.347 318.625 466.625 273.35 466.625 217.5C466.625 161.649 421.347 116.375 365.5 116.375C309.65 116.375 264.375 161.649 264.375 217.5V217.5Z" stroke="url(#paint10_linear)" stroke-width="0.727509" stroke-miterlimit="10"/>
<path d="M290.71 217.5C290.71 258.805 324.195 292.287 365.5 292.287C406.802 292.287 440.287 258.805 440.287 217.5C440.287 176.195 406.802 142.714 365.5 142.714C324.195 142.714 290.71 176.195 290.71 217.5V217.5Z" stroke="url(#paint11_linear)" stroke-width="0.706413" stroke-miterlimit="10"/>
<path d="M317.048 217.5C317.048 244.256 338.74 265.952 365.5 265.952C392.256 265.952 413.949 244.256 413.949 217.5C413.949 190.743 392.256 169.051 365.5 169.051C338.74 169.051 317.048 190.743 317.048 217.5Z" stroke="url(#paint12_linear)" stroke-width="0.685316" stroke-miterlimit="10"/>
<path d="M343.386 217.5C343.386 229.711 353.285 239.614 365.5 239.614C377.711 239.614 387.61 229.711 387.61 217.5C387.61 205.289 377.711 195.386 365.5 195.386C353.285 195.386 343.386 205.289 343.386 217.5Z" stroke="url(#paint13_linear)" stroke-width="0.66422" stroke-miterlimit="10"/>
<defs>
<linearGradient id="paint0_linear" x1="365.498" y1="-147" x2="365.498" y2="582" gradientUnits="userSpaceOnUse">
<stop stop-color="#1B3D7E" stop-opacity="0"/>
<stop offset="1" stop-color="#1DDD98" stop-opacity="0.38"/>
</linearGradient>
<linearGradient id="paint1_linear" x1="365.498" y1="-120.661" x2="365.498" y2="555.662" gradientUnits="userSpaceOnUse">
<stop stop-color="#1B3D7E" stop-opacity="0"/>
<stop offset="1" stop-color="#1DDD98" stop-opacity="0.38"/>
</linearGradient>
<linearGradient id="paint2_linear" x1="365.498" y1="-94.324" x2="365.498" y2="529.327" gradientUnits="userSpaceOnUse">
<stop stop-color="#1B3D7E" stop-opacity="0"/>
<stop offset="1" stop-color="#1DDD98" stop-opacity="0.38"/>
</linearGradient>
<linearGradient id="paint3_linear" x1="365.498" y1="-67.9855" x2="365.498" y2="502.989" gradientUnits="userSpaceOnUse">
<stop stop-color="#1B3D7E" stop-opacity="0"/>
<stop offset="1" stop-color="#1DDD98" stop-opacity="0.38"/>
</linearGradient>
<linearGradient id="paint4_linear" x1="365.498" y1="-41.651" x2="365.498" y2="476.65" gradientUnits="userSpaceOnUse">
<stop stop-color="#1B3D7E" stop-opacity="0"/>
<stop offset="1" stop-color="#1DDD98" stop-opacity="0.38"/>
</linearGradient>
<linearGradient id="paint5_linear" x1="365.498" y1="-15.3125" x2="365.498" y2="450.312" gradientUnits="userSpaceOnUse">
<stop stop-color="#1B3D7E" stop-opacity="0"/>
<stop offset="1" stop-color="#1DDD98" stop-opacity="0.38"/>
</linearGradient>
<linearGradient id="paint6_linear" x1="365.499" y1="11.026" x2="365.499" y2="423.974" gradientUnits="userSpaceOnUse">
<stop stop-color="#1B3D7E" stop-opacity="0"/>
<stop offset="1" stop-color="#1DDD98" stop-opacity="0.38"/>
</linearGradient>
<linearGradient id="paint7_linear" x1="365.498" y1="37.3639" x2="365.498" y2="397.636" gradientUnits="userSpaceOnUse">
<stop stop-color="#1B3D7E" stop-opacity="0"/>
<stop offset="1" stop-color="#1DDD98" stop-opacity="0.38"/>
</linearGradient>
<linearGradient id="paint8_linear" x1="365.499" y1="63.702" x2="365.499" y2="371.301" gradientUnits="userSpaceOnUse">
<stop stop-color="#1B3D7E" stop-opacity="0"/>
<stop offset="1" stop-color="#1DDD98" stop-opacity="0.38"/>
</linearGradient>
<linearGradient id="paint9_linear" x1="365.498" y1="90.0365" x2="365.498" y2="344.963" gradientUnits="userSpaceOnUse">
<stop stop-color="#1B3D7E" stop-opacity="0"/>
<stop offset="1" stop-color="#1DDD98" stop-opacity="0.38"/>
</linearGradient>
<linearGradient id="paint10_linear" x1="365.5" y1="116.375" x2="365.5" y2="318.625" gradientUnits="userSpaceOnUse">
<stop stop-color="#1B3D7E" stop-opacity="0"/>
<stop offset="1" stop-color="#1DDD98" stop-opacity="0.38"/>
</linearGradient>
<linearGradient id="paint11_linear" x1="365.498" y1="142.714" x2="365.498" y2="292.287" gradientUnits="userSpaceOnUse">
<stop stop-color="#1B3D7E" stop-opacity="0"/>
<stop offset="1" stop-color="#1DDD98" stop-opacity="0.38"/>
</linearGradient>
<linearGradient id="paint12_linear" x1="365.498" y1="169.051" x2="365.498" y2="265.952" gradientUnits="userSpaceOnUse">
<stop stop-color="#1B3D7E" stop-opacity="0"/>
<stop offset="1" stop-color="#1DDD98" stop-opacity="0.38"/>
</linearGradient>
<linearGradient id="paint13_linear" x1="365.498" y1="195.386" x2="365.498" y2="239.614" gradientUnits="userSpaceOnUse">
<stop stop-color="#1B3D7E" stop-opacity="0"/>
<stop offset="1" stop-color="#1DDD98" stop-opacity="0.38"/>
</linearGradient>
</defs>
</svg>
