<svg width="740" height="740" viewBox="0 0 740 740" fill="none" xmlns="http://www.w3.org/2000/svg">
<path fill-rule="evenodd" clip-rule="evenodd" d="M399.94 2.27366e-07L425.47 98.9928L342.996 0L399.94 2.27366e-07ZM211.441 34.8554L283.047 107.821L162.126 63.3275L211.441 34.8554ZM63.3199 161.398L161.815 188.785L34.8478 210.713L63.3199 161.398ZM1.81058e-05 343.203L98.9928 317.673L1.81058e-05 400.147V343.203ZM110.659 455.259L209.154 427.872L237.626 477.187L110.659 455.259ZM33.6904 529.176L106.656 457.57L62.1625 578.491L33.6904 529.176ZM187.823 572.495L259.429 499.53L308.744 528.002L187.823 572.495ZM316.245 636.384L341.775 537.391H398.719L316.245 636.384ZM316.245 641.006L341.775 739.999H398.719L316.245 641.006ZM371.934 641.006L404.963 739.999L322.489 641.006H371.934ZM404.963 537.391L371.934 636.384H322.489L404.963 537.391ZM158.125 674.993L185.512 576.498L207.44 703.465L158.125 674.993ZM233.74 604.343L212.848 706.587L190.92 579.62L233.74 604.343ZM314.152 531.124L236.051 600.339L193.231 575.617L314.152 531.124ZM134.5 505.798L65.2845 583.899L109.778 462.978L134.5 505.798ZM240.748 482.595L138.503 503.487L113.781 460.666L240.748 482.595ZM103.615 317.673L202.608 343.203V400.147L103.615 317.673ZM98.9928 373.362L0 406.391L98.9928 323.917V373.362ZM202.608 406.391L103.615 373.362V323.917L202.608 406.391ZM165.818 191.096L238.783 262.702L210.311 312.017L165.818 191.096ZM133.971 237.013L31.7258 216.12L158.693 194.192L133.971 237.013ZM207.189 317.424L137.974 239.324L162.696 196.503L207.189 317.424ZM285.358 111.824L312.745 210.319L263.43 238.791L285.358 111.824ZM234.819 135.665L156.719 66.4494L277.64 110.943L234.819 135.665ZM258.023 241.913L237.13 139.668L279.951 114.946L258.023 241.913ZM425.47 103.615L399.94 202.608H342.996L425.47 103.615ZM369.781 98.9928L336.752 6.19754e-05L419.226 98.9928H369.781ZM336.752 202.608L369.781 103.615H419.226L336.752 202.608ZM577.843 63.8099L550.456 162.305L528.528 35.3378L577.843 63.8099ZM548.145 166.308L476.539 239.274L427.224 210.801L548.145 166.308ZM502.228 134.461L523.12 32.2159L545.049 159.183L502.228 134.461ZM421.816 207.68L499.917 138.464L542.737 163.186L421.816 207.68ZM704.472 209.042L631.506 280.648L676 159.727L704.472 209.042ZM627.503 282.959L529.008 310.346L500.536 261.03L627.503 282.959ZM603.662 232.42L672.878 154.319L628.384 275.24L603.662 232.42ZM497.414 255.623L599.659 234.731L624.381 277.551L497.414 255.623ZM740 400.59L641.007 426.12L740 343.646V400.59ZM636.385 426.12L537.392 400.59L537.392 343.646L636.385 426.12ZM641.007 370.431L740 337.402L641.007 419.876V370.431ZM537.392 337.402L636.385 370.431V419.876L537.392 337.402ZM675.936 581.262L577.441 553.875L704.408 531.947L675.936 581.262ZM573.438 551.564L500.473 479.958L528.945 430.643L573.438 551.564ZM605.285 505.647L707.53 526.54L580.563 548.468L605.285 505.647ZM532.067 425.236L601.282 503.336L576.56 546.157L532.067 425.236ZM531.724 703.426L460.118 630.46L581.039 674.953L531.724 703.426ZM457.807 626.457L430.42 527.962L479.735 499.49L457.807 626.457ZM508.346 602.616L586.446 671.832L465.525 627.338L508.346 602.616ZM485.142 496.368L506.035 598.613L463.214 623.335L485.142 496.368Z" fill="url(#paint0_linear)"/>
<defs>
<linearGradient id="paint0_linear" x1="370" y1="0" x2="370" y2="739.999" gradientUnits="userSpaceOnUse">
<stop stop-color="#1DDD98"/>
<stop offset="1" stop-color="#2451A8"/>
</linearGradient>
</defs>
</svg>
