<svg width="1440" height="580" viewBox="0 0 1440 580" fill="none" xmlns="http://www.w3.org/2000/svg">
<path d="M446.706 -0.976074C446.816 23.5218 466.811 43.3853 491.477 43.3853C516.142 43.3853 536.138 23.5219 536.138 -0.980818C536.138 -25.4833 516.142 -45.3468 491.477 -45.3468C466.811 -45.3468 446.816 -25.4833 446.816 -0.980818" stroke="#E2E4E3" stroke-width="0.7" stroke-miterlimit="10" stroke-linecap="round" stroke-linejoin="round"/>
<path d="M452.798 -0.976665C452.92 20.1721 470.182 37.3206 491.476 37.3206C512.771 37.3206 530.033 20.1721 530.033 -0.981409C530.033 -22.1349 512.771 -39.2832 491.476 -39.2832C470.182 -39.2832 452.92 -22.1349 452.92 -0.981409" stroke="#E2E4E3" stroke-width="0.7" stroke-miterlimit="10" stroke-linecap="round" stroke-linejoin="round"/>
<path d="M837.249 -0.976439C837.352 7.26728 844.083 13.9541 852.387 13.9541C860.69 13.9541 867.421 7.26734 867.421 -0.981183C867.421 -9.22967 860.69 -15.9164 852.387 -15.9164C844.083 -15.9164 837.352 -9.22967 837.352 -0.981183" stroke="#E2E4E3" stroke-width="0.7" stroke-miterlimit="10" stroke-linecap="round" stroke-linejoin="round"/>
<path d="M630.107 51.6158C630.189 59.5373 636.823 66.1272 645.006 66.1272C653.19 66.1272 659.823 59.5373 659.823 51.408C659.823 43.2787 653.19 36.6885 645.006 36.6885C636.823 36.6885 630.189 43.2787 630.189 51.408" stroke="#E2E4E3" stroke-width="0.7" stroke-miterlimit="10" stroke-linecap="round" stroke-linejoin="round"/>
<path d="M909.938 84.3794L2060.56 22.1885" stroke="#E2E4E3" stroke-width="1.5" stroke-miterlimit="10" stroke-linecap="round" stroke-linejoin="round"/>
<path d="M179.9 -1.2067C180.006 -14.6991 191.179 -25.7983 204.962 -25.7983C218.744 -25.7983 229.917 -14.6991 229.917 -1.00764C229.917 12.6841 218.744 23.7833 204.962 23.7833C191.179 23.7833 180.006 12.6841 180.006 -1.00764" stroke="#E2E4E3" stroke-width="0.7" stroke-miterlimit="10" stroke-linecap="round" stroke-linejoin="round"/>
<path d="M170.867 236.741V150.55" stroke="#E2E4E3" stroke-width="0.7" stroke-miterlimit="10" stroke-linecap="round" stroke-linejoin="round"/>
<path d="M148.599 222.341V150.55" stroke="#E2E4E3" stroke-width="1.5" stroke-miterlimit="10" stroke-linecap="round" stroke-linejoin="round"/>
<path d="M231.161 187.281V236.741" stroke="#E2E4E3" stroke-width="0.7" stroke-miterlimit="10" stroke-linecap="round" stroke-linejoin="round"/>
<path d="M259.312 236.741V-0.12793" stroke="#E2E4E3" stroke-width="0.7" stroke-miterlimit="10" stroke-linecap="round" stroke-linejoin="round"/>
<path d="M73.8096 172.463V4.46301" stroke="#E2E4E3" stroke-width="0.7" stroke-miterlimit="10" stroke-linecap="round" stroke-linejoin="round"/>
<path d="M170.867 236.741H485.571" stroke="#E2E4E3" stroke-width="1.5" stroke-miterlimit="10" stroke-linecap="round" stroke-linejoin="round"/>
<path d="M94.8174 183.941L148.599 186.237" stroke="#E2E4E3" stroke-width="1.5" stroke-miterlimit="10" stroke-linecap="round" stroke-linejoin="round"/>
<path d="M148.599 222.341C148.645 231.293 162.084 236.856 170.943 236.856" stroke="#E2E4E3" stroke-width="1.5" stroke-miterlimit="10" stroke-linecap="round" stroke-linejoin="round"/>
<path d="M103.22 184.359C102.174 184.488 101.032 184.551 99.8875 184.551C87.4941 184.551 77.4473 177.334 77.4473 168.432" stroke="#E2E4E3" stroke-width="1.5" stroke-miterlimit="10" stroke-linecap="round" stroke-linejoin="round"/>
<path d="M77.3809 168.289C77.4477 162.353 109.324 157.426 148.645 157.426" stroke="#E2E4E3" stroke-width="0.7" stroke-miterlimit="10" stroke-linecap="round" stroke-linejoin="round"/>
<path d="M148.599 157.228C148.645 149.706 163.172 150.671 170.943 150.671" stroke="#E2E4E3" stroke-width="1.5" stroke-miterlimit="10" stroke-linecap="round" stroke-linejoin="round"/>
<path d="M78.011 172.463C76.7704 172.504 75.3679 172.507 73.9653 172.507C-137.357 172.507 -308.668 95.2179 -308.668 -0.123291" stroke="#E2E4E3" stroke-width="0.7" stroke-miterlimit="10" stroke-linecap="round" stroke-linejoin="round"/>
<path d="M170.867 187.281H231.161" stroke="#E2E4E3" stroke-width="0.7" stroke-miterlimit="10" stroke-linecap="round" stroke-linejoin="round"/>
<path d="M170.867 232.776C191.822 225.262 215.864 220.355 231.222 204.332" stroke="#E2E4E3" stroke-width="0.7" stroke-miterlimit="10" stroke-linecap="round" stroke-linejoin="round"/>
<path d="M270.866 -0.12793V236.741" stroke="#E2E4E3" stroke-width="0.7" stroke-miterlimit="10" stroke-linecap="round" stroke-linejoin="round"/>
<path d="M259.312 164.95C247.677 164.617 236.667 159.43 228.976 150.672" stroke="#E2E4E3" stroke-width="0.7" stroke-miterlimit="10" stroke-linecap="round" stroke-linejoin="round"/>
<path d="M228.85 150.55H148.599" stroke="#E2E4E3" stroke-width="1.5" stroke-miterlimit="10" stroke-linecap="round" stroke-linejoin="round"/>
<path d="M180.951 150.549C198.085 147.751 215.451 146.693 232.452 143.433" stroke="#E2E4E3" stroke-width="0.7" stroke-miterlimit="10" stroke-linecap="round" stroke-linejoin="round"/>
<path d="M98.1787 139.28C98.3372 131.074 105.067 124.389 113.368 124.389C121.67 124.389 128.399 131.074 128.399 139.321C128.399 147.567 121.67 154.252 113.368 154.252C105.067 154.252 98.3372 147.567 98.3372 139.321" stroke="#E2E4E3" stroke-width="0.7" stroke-miterlimit="10" stroke-linecap="round" stroke-linejoin="round"/>
<path d="M109.313 139.28C109.511 137.205 111.238 135.489 113.369 135.489C115.499 135.489 117.226 137.205 117.226 139.321C117.226 141.438 115.499 143.153 113.369 143.153C111.238 143.153 109.511 141.438 109.511 139.321" stroke="#E2E4E3" stroke-width="0.7" stroke-miterlimit="10" stroke-linecap="round" stroke-linejoin="round"/>
<path d="M28.8516 -0.12793V115.698H73.8093" stroke="#E2E4E3" stroke-width="0.7" stroke-miterlimit="10" stroke-linecap="round" stroke-linejoin="round"/>
<path d="M51.9609 69.3674H78.2212V81.6804H51.9609V69.3674Z" stroke="#E2E4E3" stroke-width="0.7" stroke-miterlimit="10" stroke-linecap="round" stroke-linejoin="round"/>
<path d="M58.8936 81.6804V69.3674" stroke="#E2E4E3" stroke-width="0.7" stroke-miterlimit="10" stroke-linecap="round" stroke-linejoin="round"/>
<path d="M62.4648 -0.12793V4.46338H76.3303V-0.12793" stroke="#E2E4E3" stroke-width="0.7" stroke-miterlimit="10" stroke-linecap="round" stroke-linejoin="round"/>
<path d="M270.866 87.5234H437.251" stroke="#E2E4E3" stroke-width="0.7" stroke-miterlimit="10" stroke-linecap="round" stroke-linejoin="round"/>
<path d="M437.252 87.5234C460.254 87.6159 482.901 92.9923 503.388 103.309" stroke="#E2E4E3" stroke-width="0.7" stroke-miterlimit="10" stroke-linecap="round" stroke-linejoin="round"/>
<path d="M485.571 236.741C498.505 193.823 503.388 148.214 503.388 103.31" stroke="#E2E4E3" stroke-width="0.7" stroke-miterlimit="10" stroke-linecap="round" stroke-linejoin="round"/>
<path d="M477.168 236.62C490.723 191.899 494.698 146.151 494.698 99.2836" stroke="#E2E4E3" stroke-width="0.7" stroke-miterlimit="10" stroke-linecap="round" stroke-linejoin="round"/>
<path d="M503.218 103.177V51.6288" stroke="#E2E4E3" stroke-width="0.7" stroke-miterlimit="10" stroke-linecap="round" stroke-linejoin="round"/>
<path d="M541.873 51.6284V-0.12793" stroke="#E2E4E3" stroke-width="0.7" stroke-miterlimit="10" stroke-linecap="round" stroke-linejoin="round"/>
<path d="M404.899 51.6288H541.873" stroke="#E2E4E3" stroke-width="0.7" stroke-miterlimit="10" stroke-linecap="round" stroke-linejoin="round"/>
<path d="M404.899 -0.12793V51.6284" stroke="#E2E4E3" stroke-width="0.7" stroke-miterlimit="10" stroke-linecap="round" stroke-linejoin="round"/>
<path d="M412.672 -0.12793V51.6284" stroke="#E2E4E3" stroke-width="0.7" stroke-miterlimit="10" stroke-linecap="round" stroke-linejoin="round"/>
<path d="M485.571 236.741C513.796 227.644 543.641 224.459 573.17 227.509" stroke="#E2E4E3" stroke-width="1.5" stroke-miterlimit="10" stroke-linecap="round" stroke-linejoin="round"/>
<path d="M259.312 158.271H500.697" stroke="#E2E4E3" stroke-width="0.7" stroke-miterlimit="10" stroke-linecap="round" stroke-linejoin="round"/>
<path d="M784.465 179.936C715.414 194.424 642.515 198.961 578.323 228.184C576.124 229.401 573.131 228.374 571.923 225.906C570.918 223.854 571.45 221.385 573.194 219.879C622.215 167.947 713.061 173.639 784.465 179.936Z" fill="#E2E4E3" stroke="#E2E4E3" stroke-width="1.5" stroke-miterlimit="10" stroke-linecap="round" stroke-linejoin="round"/>
<path d="M784.309 179.767L909.938 85.0196V-0.12793" stroke="#E2E4E3" stroke-width="0.7" stroke-miterlimit="10" stroke-linecap="round" stroke-linejoin="round"/>
<path d="M909.938 85.0193C942.214 60.9943 1032.32 20.4514 1099.91 19.8923" stroke="#E2E4E3" stroke-width="1.5" stroke-miterlimit="10" stroke-linecap="round" stroke-linejoin="round"/>
<path d="M503.218 93.5764L563.301 108.811H810.358V160.359" stroke="#E2E4E3" stroke-width="0.7" stroke-miterlimit="10" stroke-linecap="round" stroke-linejoin="round"/>
<path d="M810.358 108.81L909.937 47.6627" stroke="#E2E4E3" stroke-width="0.7" stroke-miterlimit="10" stroke-linecap="round" stroke-linejoin="round"/>
<path d="M723.174 108.811V-0.12793" stroke="#E2E4E3" stroke-width="0.7" stroke-miterlimit="10" stroke-linecap="round" stroke-linejoin="round"/>
<path d="M837.249 -0.127686C837.352 -8.37133 844.083 -15.0581 852.387 -15.0581C860.69 -15.0581 867.421 -8.3714 867.421 -0.122942C867.421 8.12548 860.69 14.8121 852.387 14.8121C844.083 14.8121 837.352 8.12548 837.352 -0.122942" stroke="#E2E4E3" stroke-width="0.7" stroke-miterlimit="10" stroke-linecap="round" stroke-linejoin="round"/>
<path d="M691.452 92.1157H713.091V96.9156H691.452V92.1157Z" stroke="#E2E4E3" stroke-width="0.7" stroke-miterlimit="10" stroke-linecap="round" stroke-linejoin="round"/>
<path d="M539.143 102.759V51.6288" stroke="#E2E4E3" stroke-width="0.7" stroke-miterlimit="10" stroke-linecap="round" stroke-linejoin="round"/>
<path d="M510.361 59.9763H530.319" stroke="#E2E4E3" stroke-width="0.7" stroke-miterlimit="10" stroke-linecap="round" stroke-linejoin="round"/>
<path d="M530.318 59.9763C531.649 60.0077 532.649 61.0005 532.649 62.2251" stroke="#E2E4E3" stroke-width="0.7" stroke-miterlimit="10" stroke-linecap="round" stroke-linejoin="round"/>
<path d="M532.629 62.0631V93.5759" stroke="#E2E4E3" stroke-width="0.7" stroke-miterlimit="10" stroke-linecap="round" stroke-linejoin="round"/>
<path d="M532.63 93.5764C532.65 94.9814 531.65 95.9741 530.417 95.9741C530.231 95.9741 530.045 95.9514 529.865 95.9054" stroke="#E2E4E3" stroke-width="0.7" stroke-miterlimit="10" stroke-linecap="round" stroke-linejoin="round"/>
<path d="M529.688 95.8711L509.94 90.8625" stroke="#E2E4E3" stroke-width="0.7" stroke-miterlimit="10" stroke-linecap="round" stroke-linejoin="round"/>
<path d="M509.941 90.8633C508.97 90.6129 508.278 89.7282 508.278 88.7146" stroke="#E2E4E3" stroke-width="0.7" stroke-miterlimit="10" stroke-linecap="round" stroke-linejoin="round"/>
<path d="M508.26 88.5673V62.0631" stroke="#E2E4E3" stroke-width="0.7" stroke-miterlimit="10" stroke-linecap="round" stroke-linejoin="round"/>
<path d="M508.26 62.0636C508.277 61.0009 509.277 60.0078 510.51 60.0078" stroke="#E2E4E3" stroke-width="0.7" stroke-miterlimit="10" stroke-linecap="round" stroke-linejoin="round"/>
<path d="M414.773 111.524H466.033V118.828H414.773V111.524Z" stroke="#E2E4E3" stroke-width="0.7" stroke-miterlimit="10" stroke-linecap="round" stroke-linejoin="round"/>
<path d="M363.724 99.6277C363.921 97.1299 366.081 94.9843 368.745 94.9843C371.409 94.9843 373.569 97.1298 373.569 99.7767C373.569 102.424 371.409 104.569 368.745 104.569C366.081 104.569 363.921 102.424 363.921 99.7767" stroke="#E2E4E3" stroke-width="0.7" stroke-miterlimit="10" stroke-linecap="round" stroke-linejoin="round"/>
<path d="M504.269 186.445H536.831V198.132H504.269V186.445Z" stroke="#E2E4E3" stroke-width="0.7" stroke-miterlimit="10" stroke-linecap="round" stroke-linejoin="round"/>
<path d="M917.921 -0.12793V10.7241H971.702V-0.12793" stroke="#E2E4E3" stroke-width="0.7" stroke-miterlimit="10" stroke-linecap="round" stroke-linejoin="round"/>
<path d="M983.887 46.6199L1692.71 30.5503" stroke="#E2E4E3" stroke-width="0.7" stroke-miterlimit="10" stroke-linecap="round" stroke-linejoin="round"/>
<path d="M1334.3 62.0635L1345.86 83.5591L1404.89 79.8025L1395.44 58.7244" stroke="#E2E4E3" stroke-width="1.5" stroke-miterlimit="10" stroke-linecap="round" stroke-linejoin="round"/>
<path d="M1045.65 27.0016L1686.61 15.106" stroke="#E2E4E3" stroke-width="0.7" stroke-miterlimit="10" stroke-linecap="round" stroke-linejoin="round"/>
<path d="M1106.37 25.7501V-0.12793" stroke="#E2E4E3" stroke-width="0.7" stroke-miterlimit="10" stroke-linecap="round" stroke-linejoin="round"/>
<path d="M1408.46 20.1155V-0.12793" stroke="#E2E4E3" stroke-width="0.7" stroke-miterlimit="10" stroke-linecap="round" stroke-linejoin="round"/>
<path d="M-247.827 185.194V194.793H148.599" stroke="#E2E4E3" stroke-width="0.7" stroke-miterlimit="10" stroke-linecap="round" stroke-linejoin="round"/>
<path d="M-12.7441 197.506H36.415" stroke="#E2E4E3" stroke-width="1.5" stroke-miterlimit="10" stroke-linecap="round" stroke-linejoin="round"/>
<path d="M36.4141 197.506C41.8577 197.512 46.2489 201.874 46.2489 207.255" stroke="#E2E4E3" stroke-width="1.5" stroke-miterlimit="10" stroke-linecap="round" stroke-linejoin="round"/>
<path d="M46.0781 207.106V244.045" stroke="#E2E4E3" stroke-width="1.5" stroke-miterlimit="10" stroke-linecap="round" stroke-linejoin="round"/>
<path d="M46.0787 244.045C46.2494 249.154 42.557 253.302 37.6416 253.903" stroke="#E2E4E3" stroke-width="1.5" stroke-miterlimit="10" stroke-linecap="round" stroke-linejoin="round"/>
<path d="M37.4648 253.853L-11.4844 260.74" stroke="#E2E4E3" stroke-miterlimit="10" stroke-linecap="round" stroke-linejoin="round"/>
<path d="M46.0781 245.089H373.807" stroke="#E2E4E3" stroke-width="1.5" stroke-miterlimit="10" stroke-linecap="round" stroke-linejoin="round"/>
<path d="M373.807 245.089C376.623 245.187 378.824 243 378.824 240.303" stroke="#E2E4E3" stroke-width="1.5" stroke-miterlimit="10" stroke-linecap="round" stroke-linejoin="round"/>
<path d="M378.639 240.289V236.741" stroke="#E2E4E3" stroke-width="1.5" stroke-miterlimit="10" stroke-linecap="round" stroke-linejoin="round"/>
<path d="M43.9775 201.054H59.1034V207.941H46.0784" stroke="#E2E4E3" stroke-width="1.5" stroke-miterlimit="10" stroke-linecap="round" stroke-linejoin="round"/>
<path d="M59.1035 203.141H148.599" stroke="#E2E4E3" stroke-width="1.5" stroke-miterlimit="10" stroke-linecap="round" stroke-linejoin="round"/>
<path d="M-2.24023 235.488H21.9193" stroke="#E2E4E3" stroke-miterlimit="10" stroke-linecap="round" stroke-linejoin="round"/>
<path d="M21.9189 235.488C24.9496 235.581 27.3294 237.945 27.3294 240.861" stroke="#E2E4E3" stroke-miterlimit="10" stroke-linecap="round" stroke-linejoin="round"/>
<path d="M27.1709 240.706V255.315" stroke="#E2E4E3" stroke-miterlimit="10" stroke-linecap="round" stroke-linejoin="round"/>
<path d="M-7.49219 229.437H26.7513" stroke="#E2E4E3" stroke-miterlimit="10" stroke-linecap="round" stroke-linejoin="round"/>
<path d="M26.751 229.437C29.782 229.584 32.1619 231.948 32.1619 234.864" stroke="#E2E4E3" stroke-miterlimit="10" stroke-linecap="round" stroke-linejoin="round"/>
<path d="M32.0029 234.863V255.315" stroke="#E2E4E3" stroke-miterlimit="10" stroke-linecap="round" stroke-linejoin="round"/>
<path d="M-60.4336 291.001H42.5068" stroke="#E2E4E3" stroke-width="1.5" stroke-miterlimit="10" stroke-linecap="round" stroke-linejoin="round"/>
<path d="M42.5068 291.001C48.0934 291.17 52.4844 286.808 52.4844 281.427" stroke="#E2E4E3" stroke-width="1.5" stroke-miterlimit="10" stroke-linecap="round" stroke-linejoin="round"/>
<path d="M52.3809 281.401V245.089" stroke="#E2E4E3" stroke-width="1.5" stroke-miterlimit="10" stroke-linecap="round" stroke-linejoin="round"/>
<path d="M150.279 227.558H84.9434" stroke="#E2E4E3" stroke-miterlimit="10" stroke-linecap="round" stroke-linejoin="round"/>
<path d="M71.0781 233.193C71.081 230.225 77.3004 227.754 84.9712 227.754" stroke="#E2E4E3" stroke-miterlimit="10" stroke-linecap="round" stroke-linejoin="round"/>
<path d="M71.0781 233.193V245.089" stroke="#E2E4E3" stroke-miterlimit="10" stroke-linecap="round" stroke-linejoin="round"/>
<path d="M151.539 229.228H84.9434" stroke="#E2E4E3" stroke-miterlimit="10" stroke-linecap="round" stroke-linejoin="round"/>
<path d="M74.8594 233.193C75.013 231.087 79.4713 229.315 84.9709 229.315" stroke="#E2E4E3" stroke-miterlimit="10" stroke-linecap="round" stroke-linejoin="round"/>
<path d="M74.8594 233.193V245.089" stroke="#E2E4E3" stroke-miterlimit="10" stroke-linecap="round" stroke-linejoin="round"/>
<mask id="path-94-inside-1" fill="white">
<path d="M1228.53 1133.31C1205.05 1083.67 1200.44 1076.9 1167.86 1044.16C1148.47 1024.67 1130.59 1009.18 1128.13 1009.72C1121.49 1011.18 955.274 850.364 957.492 844.623C958.54 841.91 850.536 733.782 717.487 604.335C584.438 474.89 440.746 334.212 398.173 291.718L320.77 214.455L338.002 197.013C356.367 178.422 360.334 170.563 347.26 178.675C337.04 185.016 331.657 179.783 338.009 169.681C342.073 163.216 341.676 161.223 335.688 158.038C331.714 155.926 325.945 147.824 322.869 140.035C319.792 132.245 312.965 123.58 307.698 120.78C302.43 117.98 298.12 114.229 298.12 112.448C298.12 110.665 295.267 110.295 291.777 111.624C286.211 113.747 278.762 111.109 248.202 96.1968C238.108 91.2714 236.927 91.7579 236.927 100.846C236.927 106.973 234.19 108.966 225.709 109.007C219.539 109.035 210.36 110.162 205.312 111.506C197.879 113.486 196.133 112.295 196.133 105.245C196.133 94.5245 185.405 89.8539 175.25 96.1545C171.091 98.7354 160.723 100.846 152.211 100.846C137.817 100.846 134.032 103.75 98.1023 142.356C76.8542 165.186 -136.871 380.468 -376.843 620.758L-813.156 1057.66L-867.308 1084.83L-921.461 1112.03L-956.231 1077.67C-975.354 1058.77 -991 1042.16 -991 1040.78C-991 1039.39 -966.675 1026.9 -936.947 1013.01C-887.105 989.74 -880.139 985.058 -847.55 953.056C-825.012 930.925 -813.031 916.226 -814.482 912.463C-817.234 905.337 -657.886 745.242 -648.043 745.242C-644.481 745.242 -587.556 690.126 -521.54 622.761C-455.526 555.396 -314.239 412.89 -207.571 306.082C-38.2254 136.517 -12.8467 112.6 -7.45618 117.512C24.048 146.223 25.9206 147.587 21.0678 138.275C17.1105 130.685 17.4195 128.663 22.8528 126.592C26.4662 125.214 31.2312 125.884 33.4404 128.08C36.08 130.701 41.8079 128.043 50.1211 120.321C57.0857 113.858 65.1307 109.466 67.9998 110.559C74.0244 112.856 91.4026 86.0105 87.7223 80.0939C86.381 77.9368 88.6548 71.2379 92.7744 65.2062C96.8942 59.1744 100.349 52.4159 100.453 50.186C100.56 47.9575 103.01 41.8574 105.903 36.6317C110.703 27.962 110.464 27.3488 103.185 29.6439C96.7015 31.6888 94.7272 29.7692 92.6368 19.389C87.9991 -3.6499 89.4335 -12.6324 97.749 -12.6324C107.2 -12.6324 111.643 -26.88 104.125 -33.0778C101.102 -35.5695 98.0793 -47.0204 97.4075 -58.5228C96.347 -76.6639 94.73 -80.1262 85.208 -84.6428C79.1707 -87.5051 73.0427 -93.5664 71.5914 -98.1102C70.1387 -102.654 65.4019 -107.676 61.062 -109.271C52.6523 -112.362 -36.1552 -199.365 -541.427 -699.523L-860.84 -1015.7L-888.523 -1069.02L-916.205 -1122.34L-883.14 -1157.17C-864.954 -1176.33 -848.154 -1192 -845.804 -1192C-843.456 -1192 -830.059 -1167.67 -816.034 -1137.93C-792.334 -1087.67 -788.105 -1081.46 -756.097 -1049.82C-737.156 -1031.11 -719.064 -1015.77 -715.892 -1015.75C-707.433 -1015.68 -546.335 -860.216 -546.335 -852.116C-546.335 -844.936 -520.62 -819.313 -141.255 -448.494L90.4448 -222.012L71.8978 -203.305C54.5342 -185.792 45.9628 -171.714 59.4182 -182.807C68.7505 -190.502 79.2267 -184.915 73.9235 -175.071C68.3983 -164.814 68.5586 -162.586 74.8259 -162.586C77.6625 -162.586 83.0884 -155.465 86.8839 -146.761C93.7266 -131.069 111.909 -118.005 126.909 -118.005C130.777 -118.005 136.227 -115.269 139.02 -111.926C141.813 -108.582 148.096 -105.846 152.981 -105.846C157.867 -105.846 164.068 -103.658 166.761 -100.983C170.568 -97.2003 171.656 -98.1012 171.656 -105.036C171.656 -111.052 174.144 -113.953 179.305 -113.953C183.512 -113.953 192.691 -115.093 199.702 -116.486C209.456 -118.424 212.451 -117.587 212.451 -112.929C212.451 -102.255 224.201 -95.4882 233.125 -101.025C237.4 -103.677 247.492 -105.846 255.551 -105.846C267.128 -105.846 273.349 -109.054 285.181 -121.12C293.421 -129.522 327.61 -164.629 361.161 -199.137C394.711 -233.646 603.383 -442.433 824.877 -663.109L1227.59 -1064.34L1280.98 -1090.57L1334.36 -1116.8L1369.01 -1082.55C1388.07 -1063.71 1403.66 -1047.19 1403.66 -1045.82C1403.66 -1044.45 1379.13 -1031.92 1349.14 -1017.98C1297.94 -994.186 1292.42 -990.456 1258.88 -956.977C1239.23 -937.363 1224.2 -919.639 1225.47 -917.587C1228.18 -913.237 1065.99 -751.571 1056.91 -749.567C1053.54 -748.825 1003 -699.888 944.597 -640.818C886.193 -581.748 745.168 -439.69 631.208 -325.133L424.008 -116.848L403.9 -136.525C392.839 -147.347 383.79 -154.355 383.79 -152.1C383.79 -149.842 385.993 -145.808 388.685 -143.133C392.493 -139.35 392.493 -137.188 388.685 -133.406C384.878 -129.623 382.702 -129.623 378.894 -133.406C372.232 -140.026 367.472 -139.518 367.472 -132.19C367.472 -128.847 364.943 -126.111 361.852 -126.111C358.762 -126.111 354.037 -123.484 351.355 -120.272C348.672 -117.061 344.064 -115.355 341.115 -116.479C337.931 -117.692 333.501 -113.476 330.218 -106.106C327.175 -99.2766 323.552 -93.6882 322.167 -93.6882C320.783 -93.6882 320.449 -89.5341 321.426 -84.4563C322.543 -78.65 320.165 -72.493 315.016 -67.8641C310.514 -63.8167 307.749 -58.1241 308.872 -55.2162C309.996 -52.3068 308.958 -48.7235 306.558 -47.2515C299.762 -43.0787 301.412 -38.0996 310.359 -35.7742C317.171 -34.0056 318.518 -30.2471 318.518 -13.012C318.518 4.93054 317.449 7.63232 310.359 7.63232C304.429 7.63232 302.2 10.3339 302.2 17.5239C302.2 22.9659 304.036 28.5449 306.28 29.9229C308.523 31.3008 310.359 40.1908 310.359 49.6802C310.359 64.3822 312.597 68.9901 325.498 80.8497C333.823 88.505 344.775 97.5028 349.833 100.846C354.892 104.19 564.241 309.364 815.055 556.788L1271.08 1006.65L1299.64 1062.27L1328.19 1117.9L1293.61 1152.46C1274.58 1171.45 1257.88 1187 1256.48 1187C1255.08 1187 1242.5 1162.84 1228.53 1133.31ZM281.802 94.6245C281.802 89.0582 268.28 72.7869 265.217 74.6674C261.132 77.1758 265.062 89.4408 271.307 93.6924C276.478 97.2108 281.802 97.6827 281.802 94.6245ZM160.183 85.9191C157.238 84.7489 153.719 84.8927 152.364 86.2391C151.007 87.5856 153.418 88.5443 157.718 88.368C162.471 88.1682 163.436 87.2133 160.183 85.9192V85.9191ZM126.653 59.1276C126.831 54.7518 113.236 57.303 109.506 62.3442C102.195 72.2332 106.545 76.792 116.455 69.6271C121.993 65.6217 126.582 60.8975 126.653 59.1276ZM298.058 43.094C298.015 35.9751 297.174 35.2656 294.248 39.8605C292.186 43.0974 291.405 47.2009 292.512 48.9799C296.049 54.6675 298.122 52.4681 298.058 43.094ZM118.623 -53.3994C118.623 -55.4965 116.786 -57.2136 114.543 -57.2136C112.3 -57.2136 110.463 -54.3704 110.463 -50.894C110.463 -47.4191 112.3 -45.7034 114.543 -47.0812C116.786 -48.4591 118.623 -51.3024 118.623 -53.3994ZM303.158 -70.931C307.052 -76.8042 307.079 -81.5653 303.214 -81.3956C299.052 -81.2054 281.797 -66.6987 281.797 -63.3822C281.797 -59.3948 299.697 -65.7223 303.151 -70.931H303.158ZM144.355 -89.359C142.385 -96.8401 131.65 -103.928 127.911 -100.215C124.966 -97.2889 139.651 -77.3864 143.163 -79.5426C144.95 -80.6398 145.486 -85.0582 144.355 -89.359Z"/>
</mask>
<path d="M1228.53 1133.31C1205.05 1083.67 1200.44 1076.9 1167.86 1044.16C1148.47 1024.67 1130.59 1009.18 1128.13 1009.72C1121.49 1011.18 955.274 850.364 957.492 844.623C958.54 841.91 850.536 733.782 717.487 604.335C584.438 474.89 440.746 334.212 398.173 291.718L320.77 214.455L338.002 197.013C356.367 178.422 360.334 170.563 347.26 178.675C337.04 185.016 331.657 179.783 338.009 169.681C342.073 163.216 341.676 161.223 335.688 158.038C331.714 155.926 325.945 147.824 322.869 140.035C319.792 132.245 312.965 123.58 307.698 120.78C302.43 117.98 298.12 114.229 298.12 112.448C298.12 110.665 295.267 110.295 291.777 111.624C286.211 113.747 278.762 111.109 248.202 96.1968C238.108 91.2714 236.927 91.7579 236.927 100.846C236.927 106.973 234.19 108.966 225.709 109.007C219.539 109.035 210.36 110.162 205.312 111.506C197.879 113.486 196.133 112.295 196.133 105.245C196.133 94.5245 185.405 89.8539 175.25 96.1545C171.091 98.7354 160.723 100.846 152.211 100.846C137.817 100.846 134.032 103.75 98.1023 142.356C76.8542 165.186 -136.871 380.468 -376.843 620.758L-813.156 1057.66L-867.308 1084.83L-921.461 1112.03L-956.231 1077.67C-975.354 1058.77 -991 1042.16 -991 1040.78C-991 1039.39 -966.675 1026.9 -936.947 1013.01C-887.105 989.74 -880.139 985.058 -847.55 953.056C-825.012 930.925 -813.031 916.226 -814.482 912.463C-817.234 905.337 -657.886 745.242 -648.043 745.242C-644.481 745.242 -587.556 690.126 -521.54 622.761C-455.526 555.396 -314.239 412.89 -207.571 306.082C-38.2254 136.517 -12.8467 112.6 -7.45618 117.512C24.048 146.223 25.9206 147.587 21.0678 138.275C17.1105 130.685 17.4195 128.663 22.8528 126.592C26.4662 125.214 31.2312 125.884 33.4404 128.08C36.08 130.701 41.8079 128.043 50.1211 120.321C57.0857 113.858 65.1307 109.466 67.9998 110.559C74.0244 112.856 91.4026 86.0105 87.7223 80.0939C86.381 77.9368 88.6548 71.2379 92.7744 65.2062C96.8942 59.1744 100.349 52.4159 100.453 50.186C100.56 47.9575 103.01 41.8574 105.903 36.6317C110.703 27.962 110.464 27.3488 103.185 29.6439C96.7015 31.6888 94.7272 29.7692 92.6368 19.389C87.9991 -3.6499 89.4335 -12.6324 97.749 -12.6324C107.2 -12.6324 111.643 -26.88 104.125 -33.0778C101.102 -35.5695 98.0793 -47.0204 97.4075 -58.5228C96.347 -76.6639 94.73 -80.1262 85.208 -84.6428C79.1707 -87.5051 73.0427 -93.5664 71.5914 -98.1102C70.1387 -102.654 65.4019 -107.676 61.062 -109.271C52.6523 -112.362 -36.1552 -199.365 -541.427 -699.523L-860.84 -1015.7L-888.523 -1069.02L-916.205 -1122.34L-883.14 -1157.17C-864.954 -1176.33 -848.154 -1192 -845.804 -1192C-843.456 -1192 -830.059 -1167.67 -816.034 -1137.93C-792.334 -1087.67 -788.105 -1081.46 -756.097 -1049.82C-737.156 -1031.11 -719.064 -1015.77 -715.892 -1015.75C-707.433 -1015.68 -546.335 -860.216 -546.335 -852.116C-546.335 -844.936 -520.62 -819.313 -141.255 -448.494L90.4448 -222.012L71.8978 -203.305C54.5342 -185.792 45.9628 -171.714 59.4182 -182.807C68.7505 -190.502 79.2267 -184.915 73.9235 -175.071C68.3983 -164.814 68.5586 -162.586 74.8259 -162.586C77.6625 -162.586 83.0884 -155.465 86.8839 -146.761C93.7266 -131.069 111.909 -118.005 126.909 -118.005C130.777 -118.005 136.227 -115.269 139.02 -111.926C141.813 -108.582 148.096 -105.846 152.981 -105.846C157.867 -105.846 164.068 -103.658 166.761 -100.983C170.568 -97.2003 171.656 -98.1012 171.656 -105.036C171.656 -111.052 174.144 -113.953 179.305 -113.953C183.512 -113.953 192.691 -115.093 199.702 -116.486C209.456 -118.424 212.451 -117.587 212.451 -112.929C212.451 -102.255 224.201 -95.4882 233.125 -101.025C237.4 -103.677 247.492 -105.846 255.551 -105.846C267.128 -105.846 273.349 -109.054 285.181 -121.12C293.421 -129.522 327.61 -164.629 361.161 -199.137C394.711 -233.646 603.383 -442.433 824.877 -663.109L1227.59 -1064.34L1280.98 -1090.57L1334.36 -1116.8L1369.01 -1082.55C1388.07 -1063.71 1403.66 -1047.19 1403.66 -1045.82C1403.66 -1044.45 1379.13 -1031.92 1349.14 -1017.98C1297.94 -994.186 1292.42 -990.456 1258.88 -956.977C1239.23 -937.363 1224.2 -919.639 1225.47 -917.587C1228.18 -913.237 1065.99 -751.571 1056.91 -749.567C1053.54 -748.825 1003 -699.888 944.597 -640.818C886.193 -581.748 745.168 -439.69 631.208 -325.133L424.008 -116.848L403.9 -136.525C392.839 -147.347 383.79 -154.355 383.79 -152.1C383.79 -149.842 385.993 -145.808 388.685 -143.133C392.493 -139.35 392.493 -137.188 388.685 -133.406C384.878 -129.623 382.702 -129.623 378.894 -133.406C372.232 -140.026 367.472 -139.518 367.472 -132.19C367.472 -128.847 364.943 -126.111 361.852 -126.111C358.762 -126.111 354.037 -123.484 351.355 -120.272C348.672 -117.061 344.064 -115.355 341.115 -116.479C337.931 -117.692 333.501 -113.476 330.218 -106.106C327.175 -99.2766 323.552 -93.6882 322.167 -93.6882C320.783 -93.6882 320.449 -89.5341 321.426 -84.4563C322.543 -78.65 320.165 -72.493 315.016 -67.8641C310.514 -63.8167 307.749 -58.1241 308.872 -55.2162C309.996 -52.3068 308.958 -48.7235 306.558 -47.2515C299.762 -43.0787 301.412 -38.0996 310.359 -35.7742C317.171 -34.0056 318.518 -30.2471 318.518 -13.012C318.518 4.93054 317.449 7.63232 310.359 7.63232C304.429 7.63232 302.2 10.3339 302.2 17.5239C302.2 22.9659 304.036 28.5449 306.28 29.9229C308.523 31.3008 310.359 40.1908 310.359 49.6802C310.359 64.3822 312.597 68.9901 325.498 80.8497C333.823 88.505 344.775 97.5028 349.833 100.846C354.892 104.19 564.241 309.364 815.055 556.788L1271.08 1006.65L1299.64 1062.27L1328.19 1117.9L1293.61 1152.46C1274.58 1171.45 1257.88 1187 1256.48 1187C1255.08 1187 1242.5 1162.84 1228.53 1133.31ZM281.802 94.6245C281.802 89.0582 268.28 72.7869 265.217 74.6674C261.132 77.1758 265.062 89.4408 271.307 93.6924C276.478 97.2108 281.802 97.6827 281.802 94.6245ZM160.183 85.9191C157.238 84.7489 153.719 84.8927 152.364 86.2391C151.007 87.5856 153.418 88.5443 157.718 88.368C162.471 88.1682 163.436 87.2133 160.183 85.9192V85.9191ZM126.653 59.1276C126.831 54.7518 113.236 57.303 109.506 62.3442C102.195 72.2332 106.545 76.792 116.455 69.6271C121.993 65.6217 126.582 60.8975 126.653 59.1276ZM298.058 43.094C298.015 35.9751 297.174 35.2656 294.248 39.8605C292.186 43.0974 291.405 47.2009 292.512 48.9799C296.049 54.6675 298.122 52.4681 298.058 43.094ZM118.623 -53.3994C118.623 -55.4965 116.786 -57.2136 114.543 -57.2136C112.3 -57.2136 110.463 -54.3704 110.463 -50.894C110.463 -47.4191 112.3 -45.7034 114.543 -47.0812C116.786 -48.4591 118.623 -51.3024 118.623 -53.3994ZM303.158 -70.931C307.052 -76.8042 307.079 -81.5653 303.214 -81.3956C299.052 -81.2054 281.797 -66.6987 281.797 -63.3822C281.797 -59.3948 299.697 -65.7223 303.151 -70.931H303.158ZM144.355 -89.359C142.385 -96.8401 131.65 -103.928 127.911 -100.215C124.966 -97.2889 139.651 -77.3864 143.163 -79.5426C144.95 -80.6398 145.486 -85.0582 144.355 -89.359Z" stroke="#E2E4E3" stroke-width="2.00647" mask="url(#path-94-inside-1)"/>
<path d="M196.163 78.876L197.424 91.3979" stroke="#E2E4E3" stroke-width="1.5" stroke-miterlimit="10" stroke-linecap="round" stroke-linejoin="round"/>
<path d="M197.424 37.7621L221.793 35.4664" stroke="#E2E4E3" stroke-width="1.5" stroke-miterlimit="10" stroke-linecap="round" stroke-linejoin="round"/>
<path d="M205.407 68.2322C204.939 57.51 202.207 47.1759 197.486 37.6956" stroke="#E2E4E3" stroke-width="1.5" stroke-miterlimit="10" stroke-linecap="round" stroke-linejoin="round"/>
<path d="M221.793 35.4664C219.214 45.5075 218.568 56.1728 220.079 66.6423" stroke="#E2E4E3" stroke-width="1.5" stroke-miterlimit="10" stroke-linecap="round" stroke-linejoin="round"/>
<path d="M231.037 75.5369L232.297 88.0587" stroke="#E2E4E3" stroke-width="1.5" stroke-miterlimit="10" stroke-linecap="round" stroke-linejoin="round"/>
<path d="M207.087 83.4673C207.096 81.9757 205.804 80.9322 204.358 81.0807C202.923 81.2283 201.875 82.4973 202.01 83.9248" stroke="#E2E4E3" stroke-width="1.5" stroke-miterlimit="10" stroke-linecap="round" stroke-linejoin="round"/>
<path d="M226.625 81.5886C226.489 80.0738 225.196 79.0303 223.751 79.1789C222.315 79.3264 221.267 80.5955 221.402 82.0229" stroke="#E2E4E3" stroke-width="1.5" stroke-miterlimit="10" stroke-linecap="round" stroke-linejoin="round"/>
<path d="M286.288 5.62402L298.893 4.37183" stroke="#E2E4E3" stroke-width="1.5" stroke-miterlimit="10" stroke-linecap="round" stroke-linejoin="round"/>
<path d="M244.902 4.37146L242.381 -20.0459" stroke="#E2E4E3" stroke-width="1.5" stroke-miterlimit="10" stroke-linecap="round" stroke-linejoin="round"/>
<path d="M275.365 -3.55969C264.937 -3.1273 254.535 -0.412961 244.991 4.276" stroke="#E2E4E3" stroke-width="1.5" stroke-miterlimit="10" stroke-linecap="round" stroke-linejoin="round"/>
<path d="M290.911 -5.22848C289.565 -5.2706 288.515 -3.98627 288.665 -2.55055C288.813 -1.12437 290.091 -0.0833325 291.528 -0.21744" stroke="#E2E4E3" stroke-width="1.5" stroke-miterlimit="10" stroke-linecap="round" stroke-linejoin="round"/>
<path d="M163.811 -9.40283L166.121 15.0143" stroke="#E2E4E3" stroke-width="1.5" stroke-miterlimit="10" stroke-linecap="round" stroke-linejoin="round"/>
<path d="M166.121 15.0154C155.98 12.0898 145.244 11.4482 134.705 12.9491" stroke="#E2E4E3" stroke-width="1.5" stroke-miterlimit="10" stroke-linecap="round" stroke-linejoin="round"/>
<path d="M125.786 24.1973L113.181 25.2408" stroke="#E2E4E3" stroke-width="1.5" stroke-miterlimit="10" stroke-linecap="round" stroke-linejoin="round"/>
<path d="M117.802 0.406006C119.271 0.0511115 120.321 -1.23315 120.172 -2.66884C120.023 -4.095 118.746 -5.13603 117.309 -5.00192" stroke="#E2E4E3" stroke-width="1.5" stroke-miterlimit="10" stroke-linecap="round" stroke-linejoin="round"/>
<path d="M119.693 19.6056C121.185 19.3154 122.235 18.031 122.085 16.5953C121.937 15.1692 120.66 14.1282 119.223 14.2622" stroke="#E2E4E3" stroke-width="1.5" stroke-miterlimit="10" stroke-linecap="round" stroke-linejoin="round"/>
<path d="M196.163 78.8752C204.18 53.7151 190.112 27.092 164.906 19.2904C151.843 15.2473 137.662 16.9584 125.953 23.9907" stroke="#E2E4E3" stroke-width="1.5" stroke-miterlimit="10" stroke-linecap="round" stroke-linejoin="round"/>
<path d="M679.143 427.187L1264.22 1003.81" stroke="#E2E4E3" stroke-width="1.5" stroke-miterlimit="10" stroke-linecap="round" stroke-linejoin="round"/>
<path d="M960.443 838.109L591.118 479.779" stroke="#E2E4E3" stroke-width="1.5" stroke-miterlimit="10" stroke-linecap="round" stroke-linejoin="round"/>
<path d="M160.869 18.354L162.129 20.6495" stroke="#E2E4E3" stroke-width="1.5" stroke-miterlimit="10" stroke-linecap="round" stroke-linejoin="round"/>
<path d="M195.323 47.78L171.583 71.5713L141.121 41.5192L163.6 18.9801" stroke="#E2E4E3" stroke-width="1.5" stroke-miterlimit="10" stroke-linecap="round" stroke-linejoin="round"/>
<path d="M133.769 46.7366L136.92 56.1279" stroke="#E2E4E3" stroke-width="1.5" stroke-miterlimit="10" stroke-linecap="round" stroke-linejoin="round"/>
<path d="M166.752 79.0847L157.298 76.1631" stroke="#E2E4E3" stroke-width="1.5" stroke-miterlimit="10" stroke-linecap="round" stroke-linejoin="round"/>
<path d="M98.895 70.9446L130.828 102.458L118.223 114.979L94.0631 91.1881L89.6514 76.5793" stroke="#E2E4E3" stroke-width="1.5" stroke-miterlimit="10" stroke-linecap="round" stroke-linejoin="round"/>
<path d="M110.87 79.5022L109.189 81.1716" stroke="#E2E4E3" stroke-width="1.5" stroke-miterlimit="10" stroke-linecap="round" stroke-linejoin="round"/>
<path d="M131.248 99.7449L129.777 101.415" stroke="#E2E4E3" stroke-width="1.5" stroke-miterlimit="10" stroke-linecap="round" stroke-linejoin="round"/>
<path d="M95.5337 92.6494L92.8027 95.1536" stroke="#E2E4E3" stroke-width="1.5" stroke-miterlimit="10" stroke-linecap="round" stroke-linejoin="round"/>
<path d="M114.23 116.232L116.751 113.52" stroke="#E2E4E3" stroke-width="1.5" stroke-miterlimit="10" stroke-linecap="round" stroke-linejoin="round"/>
<path d="M86.08 96.8235L40.4922 156.928L51.8366 168.197L113.181 123.536" stroke="#E2E4E3" stroke-width="1.5" stroke-miterlimit="10" stroke-linecap="round" stroke-linejoin="round"/>
<path d="M86.0801 96.8235L91.7523 116.858" stroke="#E2E4E3" stroke-width="0.7" stroke-miterlimit="10" stroke-linecap="round" stroke-linejoin="round"/>
<path d="M113.18 123.536L94.0625 119.154" stroke="#E2E4E3" stroke-width="0.7" stroke-miterlimit="10" stroke-linecap="round" stroke-linejoin="round"/>
<path d="M-228.203 469.135L97.8448 142.319L93.4331 137.936" stroke="#E2E4E3" stroke-width="1.5" stroke-miterlimit="10" stroke-linecap="round" stroke-linejoin="round"/>
<path d="M57.9299 184.267L56.8789 183.431" stroke="#E2E4E3" stroke-width="1.5" stroke-miterlimit="10" stroke-linecap="round" stroke-linejoin="round"/>
<path d="M24.3159 151.292L-13.499 113.936" stroke="#E2E4E3" stroke-width="1.5" stroke-miterlimit="10" stroke-linecap="round" stroke-linejoin="round"/>
<path d="M71.3745 116.231L66.1224 111.014L-50.8936 223.918" stroke="#E2E4E3" stroke-width="1.5" stroke-miterlimit="10" stroke-linecap="round" stroke-linejoin="round"/>
<path d="M39.0215 137.101L30.1981 128.336L22.2148 136.475L30.8283 145.032" stroke="#E2E4E3" stroke-width="1.5" stroke-miterlimit="10" stroke-linecap="round" stroke-linejoin="round"/>
<path d="M30.1982 128.336C28.0737 126.101 24.4597 126.116 22.2399 128.339C20.0202 130.562 20.0353 134.152 22.2738 136.357" stroke="#E2E4E3" stroke-width="1.5" stroke-miterlimit="10" stroke-linecap="round" stroke-linejoin="round"/>
<path d="M34.4 132.51L26.417 140.649" stroke="#E2E4E3" stroke-width="0.7" stroke-miterlimit="10" stroke-linecap="round" stroke-linejoin="round"/>
<path d="M54.5674 122.075C52.4993 119.676 48.8854 119.69 46.6657 121.914C44.446 124.138 44.4611 127.728 46.6995 129.933" stroke="#E2E4E3" stroke-width="1.5" stroke-miterlimit="10" stroke-linecap="round" stroke-linejoin="round"/>
<path d="M125.155 41.9368H138.39" stroke="#E2E4E3" stroke-width="1.5" stroke-miterlimit="10" stroke-linecap="round" stroke-linejoin="round"/>
<path d="M145.113 37.345L132.298 25.8668" stroke="#E2E4E3" stroke-width="0.7" stroke-miterlimit="10" stroke-linecap="round" stroke-linejoin="round"/>
<path d="M105.197 42.1448L115.911 25.0317" stroke="#E2E4E3" stroke-width="1.5" stroke-miterlimit="10" stroke-linecap="round" stroke-linejoin="round"/>
<path d="M125.156 41.9368L119.693 50.9108" stroke="#E2E4E3" stroke-width="1.5" stroke-miterlimit="10" stroke-linecap="round" stroke-linejoin="round"/>
<path d="M106.458 51.119L101.626 58.6322L106.458 61.5538L111.08 54.0409" stroke="#E2E4E3" stroke-width="1.5" stroke-miterlimit="10" stroke-linecap="round" stroke-linejoin="round"/>
<path d="M101.625 58.6318L90.7012 71.3624" stroke="#E2E4E3" stroke-width="1.5" stroke-miterlimit="10" stroke-linecap="round" stroke-linejoin="round"/>
<path d="M106.458 61.5537L101.626 73.6582" stroke="#E2E4E3" stroke-width="1.5" stroke-miterlimit="10" stroke-linecap="round" stroke-linejoin="round"/>
<path d="M173.684 82.0066L176.205 81.589" stroke="#E2E4E3" stroke-width="1.5" stroke-miterlimit="10" stroke-linecap="round" stroke-linejoin="round"/>
<path d="M180.194 85.5537L179.776 87.8494" stroke="#E2E4E3" stroke-width="1.5" stroke-miterlimit="10" stroke-linecap="round" stroke-linejoin="round"/>
<path d="M181.878 75.5364L198.054 59.2581" stroke="#E2E4E3" stroke-width="1.5" stroke-miterlimit="10" stroke-linecap="round" stroke-linejoin="round"/>
<path d="M198.264 67.6067L186.289 79.7112" stroke="#E2E4E3" stroke-width="1.5" stroke-miterlimit="10" stroke-linecap="round" stroke-linejoin="round"/>
<path d="M139.441 18.5625C141.545 24.2685 144.257 29.8201 147.685 34.9321" stroke="#E2E4E3" stroke-width="1.5" stroke-miterlimit="10" stroke-linecap="round" stroke-linejoin="round"/>
<path d="M181.668 61.345C185.53 62.5734 189.337 63.545 193.207 64.186" stroke="#E2E4E3" stroke-width="1.5" stroke-miterlimit="10" stroke-linecap="round" stroke-linejoin="round"/>
<path d="M286.289 5.62416C261.118 -2.37262 234.317 11.6018 226.464 36.6416C222.394 49.6184 224.116 63.7055 231.195 75.3369" stroke="#E2E4E3" stroke-width="1.5" stroke-miterlimit="10" stroke-linecap="round" stroke-linejoin="round"/>
<path d="M254.986 6.45874L278.936 30.0411L248.684 60.3018L225.995 37.9716" stroke="#E2E4E3" stroke-width="1.5" stroke-miterlimit="10" stroke-linecap="round" stroke-linejoin="round"/>
<path d="M253.936 67.6055L263.179 64.4751" stroke="#E2E4E3" stroke-width="1.5" stroke-miterlimit="10" stroke-linecap="round" stroke-linejoin="round"/>
<path d="M286.499 34.8403L283.348 44.2317" stroke="#E2E4E3" stroke-width="1.5" stroke-miterlimit="10" stroke-linecap="round" stroke-linejoin="round"/>
<path d="M278.306 102.249L310.028 70.5273L322.633 83.049L298.684 107.049L283.978 111.431" stroke="#E2E4E3" stroke-width="1.5" stroke-miterlimit="10" stroke-linecap="round" stroke-linejoin="round"/>
<path d="M286.919 90.3542L288.6 92.0234" stroke="#E2E4E3" stroke-width="1.5" stroke-miterlimit="10" stroke-linecap="round" stroke-linejoin="round"/>
<path d="M307.297 69.9012L308.977 71.5706" stroke="#E2E4E3" stroke-width="1.5" stroke-miterlimit="10" stroke-linecap="round" stroke-linejoin="round"/>
<path d="M299.944 105.588L302.675 108.301" stroke="#E2E4E3" stroke-width="1.5" stroke-miterlimit="10" stroke-linecap="round" stroke-linejoin="round"/>
<path d="M323.893 87.0146L321.162 84.5105" stroke="#E2E4E3" stroke-width="1.5" stroke-miterlimit="10" stroke-linecap="round" stroke-linejoin="round"/>
<path d="M304.355 114.98L364.859 160.267L375.993 148.997L331.036 88.0583" stroke="#E2E4E3" stroke-width="1.5" stroke-miterlimit="10" stroke-linecap="round" stroke-linejoin="round"/>
<path d="M304.355 114.979L324.523 109.344" stroke="#E2E4E3" stroke-width="0.7" stroke-miterlimit="10" stroke-linecap="round" stroke-linejoin="round"/>
<path d="M331.036 88.0583L326.834 107.05" stroke="#E2E4E3" stroke-width="0.7" stroke-miterlimit="10" stroke-linecap="round" stroke-linejoin="round"/>
<path d="M679.142 427.188L350.153 103.293L345.531 107.676" stroke="#E2E4E3" stroke-width="1.5" stroke-miterlimit="10" stroke-linecap="round" stroke-linejoin="round"/>
<path d="M424.103 242.701C433.421 251.991 448.488 252.199 457.911 243.096C467.333 233.992 467.543 219.025 458.379 209.665C458.279 209.562 458.178 209.461 458.076 209.36" stroke="#E2E4E3" stroke-width="1.5" stroke-miterlimit="10" stroke-linecap="round" stroke-linejoin="round"/>
<path d="M432.296 251.049C441.656 260.401 456.79 260.61 466.255 251.466C475.72 242.322 475.93 227.288 466.725 217.886C466.625 217.783 466.523 217.681 466.421 217.58" stroke="#E2E4E3" stroke-width="1.5" stroke-miterlimit="10" stroke-linecap="round" stroke-linejoin="round"/>
<path d="M429.354 247.919C438.602 257.283 453.711 257.491 463.16 248.363C472.609 239.234 472.82 224.224 463.63 214.838C463.53 214.735 463.428 214.634 463.326 214.533" stroke="#E2E4E3" stroke-width="0.7" stroke-miterlimit="10" stroke-linecap="round" stroke-linejoin="round"/>
<path d="M427.674 246.249C436.966 255.612 452.062 255.821 461.503 246.7C470.944 237.579 471.154 222.583 461.972 213.205C461.872 213.102 461.77 213.001 461.668 212.9" stroke="#E2E4E3" stroke-width="0.7" stroke-miterlimit="10" stroke-linecap="round" stroke-linejoin="round"/>
<path d="M321.372 213.901L591.118 479.779" stroke="#E2E4E3" stroke-width="1.5" stroke-miterlimit="10" stroke-linecap="round" stroke-linejoin="round"/>
<path d="M392.381 142.945L391.33 143.989" stroke="#E2E4E3" stroke-width="1.5" stroke-miterlimit="10" stroke-linecap="round" stroke-linejoin="round"/>
<path d="M359.187 176.336L321.372 213.901" stroke="#E2E4E3" stroke-width="1.5" stroke-miterlimit="10" stroke-linecap="round" stroke-linejoin="round"/>
<path d="M323.894 129.589L318.432 134.806L432.296 251.049" stroke="#E2E4E3" stroke-width="1.5" stroke-miterlimit="10" stroke-linecap="round" stroke-linejoin="round"/>
<path d="M344.902 161.727L336.078 170.492L344.271 178.422L352.885 169.866" stroke="#E2E4E3" stroke-width="1.5" stroke-miterlimit="10" stroke-linecap="round" stroke-linejoin="round"/>
<path d="M336.078 170.493C333.985 172.57 334 176.16 336.238 178.365C338.477 180.57 342.091 180.555 344.31 178.332" stroke="#E2E4E3" stroke-width="1.5" stroke-miterlimit="10" stroke-linecap="round" stroke-linejoin="round"/>
<path d="M340.279 166.11L348.472 174.249" stroke="#E2E4E3" stroke-width="0.7" stroke-miterlimit="10" stroke-linecap="round" stroke-linejoin="round"/>
<path d="M329.565 146.284C327.516 148.305 327.531 151.895 329.77 154.1C332.008 156.306 335.622 156.291 337.842 154.067" stroke="#E2E4E3" stroke-width="1.5" stroke-miterlimit="10" stroke-linecap="round" stroke-linejoin="round"/>
<path d="M248.894 75.9536V63.0144" stroke="#E2E4E3" stroke-width="1.5" stroke-miterlimit="10" stroke-linecap="round" stroke-linejoin="round"/>
<path d="M244.482 56.1278L232.928 69.067" stroke="#E2E4E3" stroke-width="0.7" stroke-miterlimit="10" stroke-linecap="round" stroke-linejoin="round"/>
<path d="M249.314 95.78L232.087 85.3453" stroke="#E2E4E3" stroke-width="1.5" stroke-miterlimit="10" stroke-linecap="round" stroke-linejoin="round"/>
<path d="M248.894 75.9542L258.137 81.5889" stroke="#E2E4E3" stroke-width="1.5" stroke-miterlimit="10" stroke-linecap="round" stroke-linejoin="round"/>
<path d="M258.138 94.7364L265.911 99.5364L268.852 94.7364L261.079 89.9364" stroke="#E2E4E3" stroke-width="1.5" stroke-miterlimit="10" stroke-linecap="round" stroke-linejoin="round"/>
<path d="M265.91 99.5364L278.515 110.388" stroke="#E2E4E3" stroke-width="1.5" stroke-miterlimit="10" stroke-linecap="round" stroke-linejoin="round"/>
<path d="M268.852 94.7363L280.826 99.536" stroke="#E2E4E3" stroke-width="1.5" stroke-miterlimit="10" stroke-linecap="round" stroke-linejoin="round"/>
<path d="M289.44 27.7454L288.81 25.4495" stroke="#E2E4E3" stroke-width="1.5" stroke-miterlimit="10" stroke-linecap="round" stroke-linejoin="round"/>
<path d="M292.801 21.4844L295.322 21.9014" stroke="#E2E4E3" stroke-width="1.5" stroke-miterlimit="10" stroke-linecap="round" stroke-linejoin="round"/>
<path d="M282.718 19.8152L266.541 3.74561" stroke="#E2E4E3" stroke-width="1.5" stroke-miterlimit="10" stroke-linecap="round" stroke-linejoin="round"/>
<path d="M274.944 3.53674L287.129 15.4326" stroke="#E2E4E3" stroke-width="1.5" stroke-miterlimit="10" stroke-linecap="round" stroke-linejoin="round"/>
<path d="M225.574 61.7623C231.474 59.8484 237.063 57.1544 242.209 53.7491" stroke="#E2E4E3" stroke-width="1.5" stroke-miterlimit="10" stroke-linecap="round" stroke-linejoin="round"/>
<path d="M268.642 20.0232C270.034 16.154 271.013 12.3716 271.658 8.52686" stroke="#E2E4E3" stroke-width="1.5" stroke-miterlimit="10" stroke-linecap="round" stroke-linejoin="round"/>
<path d="M153.937 79.2932C158.854 82.1711 163.872 84.6495 169.077 86.6825" stroke="#E2E4E3" stroke-width="1.5" stroke-miterlimit="10" stroke-linecap="round" stroke-linejoin="round"/>
<path d="M121.794 47.3628C124.892 52.131 128.282 56.6976 132.058 60.9404" stroke="#E2E4E3" stroke-width="1.5" stroke-miterlimit="10" stroke-linecap="round" stroke-linejoin="round"/>
<path d="M112.13 26.2841L113.18 29.4147" stroke="#E2E4E3" stroke-width="1.5" stroke-miterlimit="10" stroke-linecap="round" stroke-linejoin="round"/>
<path d="M297.213 23.7806C299.033 17.6632 300.166 11.4628 300.681 5.19702" stroke="#E2E4E3" stroke-width="1.5" stroke-miterlimit="10" stroke-linecap="round" stroke-linejoin="round"/>
<path d="M286.709 47.5713C289.762 42.653 292.257 37.6686 294.304 32.4979" stroke="#E2E4E3" stroke-width="1.5" stroke-miterlimit="10" stroke-linecap="round" stroke-linejoin="round"/>
<path d="M254.566 79.501C259.523 76.3905 264.12 73.0225 268.391 69.2715" stroke="#E2E4E3" stroke-width="1.5" stroke-miterlimit="10" stroke-linecap="round" stroke-linejoin="round"/>
<path d="M233.348 89.1019L236.289 88.0583" stroke="#E2E4E3" stroke-width="1.5" stroke-miterlimit="10" stroke-linecap="round" stroke-linejoin="round"/>
<path d="M177.886 89.7279C184.01 91.3805 190.252 92.5066 196.559 93.0181" stroke="#E2E4E3" stroke-width="1.5" stroke-miterlimit="10" stroke-linecap="round" stroke-linejoin="round"/>
<path d="M235.659 106.006L234.188 89.9368L226.625 81.589L201.835 84.0934L196.163 93.6934L197.634 109.763L235.659 106.006Z" stroke="#E2E4E3" stroke-width="1.5" stroke-miterlimit="10" stroke-linecap="round" stroke-linejoin="round"/>
<path d="M313.599 -33.6108L297.423 -32.1499L289.02 -24.6368L291.33 -0.0108983L301.204 5.62402L317.171 4.16311L313.599 -33.6108V-33.6108Z" stroke="#E2E4E3" stroke-width="1.5" stroke-miterlimit="10" stroke-linecap="round" stroke-linejoin="round"/>
<path d="M95.1135 28.5808L111.29 27.1199L119.693 19.607L117.172 -4.81034L107.508 -10.6538L91.332 -8.98435L95.1135 28.5808V28.5808Z" stroke="#E2E4E3" stroke-width="1.5" stroke-miterlimit="10" stroke-linecap="round" stroke-linejoin="round"/>
<path d="M164.441 91.3968L145.533 91.1882L121.164 67.1881L109.819 78.6663L132.298 100.788L168.222 99.3273L179.777 87.8491L173.684 82.0056L164.441 91.3969V91.3968Z" stroke="#E2E4E3" stroke-width="1.5" stroke-miterlimit="10" stroke-linecap="round" stroke-linejoin="round"/>
<path d="M298.893 37.1362L298.473 55.9188L274.523 80.1275L285.868 91.3972L308.137 69.0667L306.876 33.3798L295.322 21.9014L289.439 27.745L298.893 37.1362Z" stroke="#E2E4E3" stroke-width="1.5" stroke-miterlimit="10" stroke-linecap="round" stroke-linejoin="round"/>
<path d="M171.163 -2.51519C171.221 15.6036 186.084 30.3682 204.418 30.3682C222.752 30.3682 237.614 15.6036 237.614 -2.60938C237.614 -20.8224 222.752 -35.5869 204.418 -35.5869C186.084 -35.5869 171.221 -20.8224 171.221 -2.60938" stroke="#E2E4E3" stroke-width="1.5" stroke-miterlimit="10" stroke-linecap="round" stroke-linejoin="round"/>
<path d="M176.416 -2.51523C176.501 12.707 189 25.1233 204.418 25.1233C219.837 25.1233 232.336 12.707 232.336 -2.60941C232.336 -17.9258 219.837 -30.3423 204.418 -30.3423C189 -30.3423 176.501 -17.9258 176.501 -2.60941" stroke="#E2E4E3" stroke-width="1.5" stroke-miterlimit="10" stroke-linecap="round" stroke-linejoin="round"/>
<path d="M217.592 95.9879C217.706 99.3867 220.649 102.311 224.28 102.311C227.912 102.311 230.855 99.3867 230.855 95.7795C230.855 92.1724 227.912 89.2483 224.28 89.2483C220.649 89.2483 217.706 92.1724 217.706 95.7795" stroke="#E2E4E3" stroke-width="0.7" stroke-miterlimit="10" stroke-linecap="round" stroke-linejoin="round"/>
<path d="M200.365 97.6577C200.557 101.068 203.501 103.993 207.132 103.993C210.763 103.993 213.707 101.068 213.707 97.4612C213.707 93.854 210.763 90.9299 207.132 90.9299C203.501 90.9299 200.557 93.854 200.557 97.4612" stroke="#E2E4E3" stroke-width="0.7" stroke-miterlimit="10" stroke-linecap="round" stroke-linejoin="round"/>
<path d="M208.348 67.8149C208.359 70.1276 210.361 72.1154 212.83 72.1154C215.298 72.1154 217.299 70.1276 217.299 67.6755C217.299 65.2235 215.298 63.2357 212.83 63.2357C210.361 63.2357 208.36 65.2235 208.36 67.6755" stroke="#E2E4E3" stroke-width="0.7" stroke-miterlimit="10" stroke-linecap="round" stroke-linejoin="round"/>
<path d="M204.986 50.4925C205.195 53.7228 207.848 56.3582 211.12 56.3582C214.393 56.3582 217.046 53.7228 217.046 50.4719C217.046 47.2211 214.393 44.5857 211.12 44.5857C207.848 44.5857 205.195 47.2211 205.195 50.4719" stroke="#E2E4E3" stroke-width="0.7" stroke-miterlimit="10" stroke-linecap="round" stroke-linejoin="round"/>
<path d="M205.406 67.8154C205.506 71.6942 208.785 74.9514 212.829 74.9514C216.874 74.9514 220.153 71.6941 220.153 67.676C220.153 63.6579 216.874 60.4006 212.829 60.4006C208.785 60.4006 205.506 63.6579 205.506 67.676" stroke="#E2E4E3" stroke-width="1.5" stroke-miterlimit="10" stroke-linecap="round" stroke-linejoin="round"/>
<path d="M298.474 -5.22902C298.58 -1.69869 301.524 1.22534 305.155 1.22534C308.786 1.22534 311.729 -1.69872 311.729 -5.30579C311.729 -8.91288 308.786 -11.8369 305.155 -11.8369C301.524 -11.8369 298.58 -8.91288 298.58 -5.30579" stroke="#E2E4E3" stroke-width="0.7" stroke-miterlimit="10" stroke-linecap="round" stroke-linejoin="round"/>
<path d="M98.6846 17.3105C98.7989 20.7285 101.743 23.6526 105.374 23.6526C109.005 23.6526 111.948 20.7285 111.948 17.1214C111.948 13.5143 109.005 10.5901 105.374 10.5901C101.743 10.5901 98.799 13.5143 98.799 17.1214" stroke="#E2E4E3" stroke-width="0.7" stroke-miterlimit="10" stroke-linecap="round" stroke-linejoin="round"/>
<path d="M97.0039 0.198071C97.1063 3.69367 100.05 6.61792 103.681 6.61792C107.312 6.61792 110.256 3.69364 110.256 0.0864618C110.256 -3.52066 107.312 -6.44482 103.681 -6.44482C100.05 -6.44482 97.1064 -3.52066 97.1064 0.0864618" stroke="#E2E4E3" stroke-width="0.7" stroke-miterlimit="10" stroke-linecap="round" stroke-linejoin="round"/>
<path d="M129.146 5.8316C129.196 8.19816 131.197 10.186 133.665 10.186C136.133 10.186 138.134 8.19824 138.134 5.74622C138.134 3.29416 136.133 1.3064 133.665 1.3064C131.197 1.3064 129.196 3.29416 129.196 5.74622" stroke="#E2E4E3" stroke-width="0.7" stroke-miterlimit="10" stroke-linecap="round" stroke-linejoin="round"/>
<path d="M144.903 4.16292C145.058 7.29994 147.711 9.9353 150.983 9.9353C154.256 9.9353 156.909 7.29993 156.909 4.04907C156.909 0.798183 154.256 -1.83716 150.983 -1.83716C147.711 -1.83716 145.058 0.798183 145.058 4.04907" stroke="#E2E4E3" stroke-width="0.7" stroke-miterlimit="10" stroke-linecap="round" stroke-linejoin="round"/>
<path d="M126.206 5.83221C126.342 9.76483 129.621 13.0222 133.666 13.0222C137.711 13.0222 140.99 9.76491 140.99 5.74683C140.99 1.72872 137.711 -1.52856 133.666 -1.52856C129.621 -1.52856 126.342 1.72872 126.342 5.74683" stroke="#E2E4E3" stroke-width="1.5" stroke-miterlimit="10" stroke-linecap="round" stroke-linejoin="round"/>
<path d="M139.861 40.2672L133.769 46.7367L166.751 79.0844L172.844 72.8236L139.861 40.2672Z" stroke="#E2E4E3" stroke-width="1.5" stroke-miterlimit="10" stroke-linecap="round" stroke-linejoin="round"/>
<path d="M136.92 56.1278L123.475 69.4844L143.853 89.519L157.298 76.1626L136.92 56.1278Z" stroke="#E2E4E3" stroke-width="1.5" stroke-miterlimit="10" stroke-linecap="round" stroke-linejoin="round"/>
<path d="M89.2314 74.911C89.4161 77.9115 91.9264 80.4053 95.0231 80.4053C98.1198 80.4053 100.63 77.9115 100.63 74.8353C100.63 71.7591 98.1198 69.2655 95.0231 69.2655C91.9264 69.2655 89.4161 71.7591 89.4161 74.8353" stroke="#E2E4E3" stroke-width="1.5" stroke-miterlimit="10" stroke-linecap="round" stroke-linejoin="round"/>
<path d="M91.542 74.9104C91.6211 76.7011 93.144 78.2139 95.0227 78.2139C96.9015 78.2139 98.4244 76.701 98.4244 74.8347C98.4244 72.9684 96.9015 71.4556 95.0227 71.4556C93.144 71.4556 91.621 72.9684 91.621 74.8347" stroke="#E2E4E3" stroke-width="0.7" stroke-miterlimit="10" stroke-linecap="round" stroke-linejoin="round"/>
<path d="M87.9711 90.5625L83.9795 94.7365L114.652 124.997L118.853 120.823L87.9711 90.5625V90.5625Z" stroke="#E2E4E3" stroke-width="1.5" stroke-miterlimit="10" stroke-linecap="round" stroke-linejoin="round"/>
<path d="M91.752 116.023C91.7548 117.733 93.1645 119.133 94.9024 119.133C96.6404 119.133 98.0492 117.733 98.0492 116.007C98.0492 114.28 96.6404 112.881 94.9024 112.881C93.1645 112.881 91.7556 114.28 91.7556 116.007" stroke="#E2E4E3" stroke-width="0.7" stroke-miterlimit="10" stroke-linecap="round" stroke-linejoin="round"/>
<path d="M81.668 131.676C81.858 133.47 83.4713 135.072 85.4613 135.072C87.4513 135.072 89.0645 133.47 89.0645 131.493C89.0645 129.516 87.4513 127.913 85.4613 127.913C83.4713 127.913 81.858 129.516 81.858 131.493" stroke="#E2E4E3" stroke-width="0.7" stroke-miterlimit="10" stroke-linecap="round" stroke-linejoin="round"/>
<path d="M73.6846 123.745C73.8533 125.584 75.4666 127.187 77.4566 127.187C79.4466 127.187 81.0598 125.584 81.0598 123.607C81.0598 121.63 79.4466 120.028 77.4566 120.028C75.4666 120.028 73.8533 121.63 73.8533 123.607" stroke="#E2E4E3" stroke-width="0.7" stroke-miterlimit="10" stroke-linecap="round" stroke-linejoin="round"/>
<path d="M72.0039 141.276C72.1521 143.193 73.7652 144.795 75.7552 144.795C77.7452 144.795 79.3584 143.193 79.3584 141.216C79.3584 139.239 77.7452 137.636 75.7552 137.636C73.7652 137.636 72.152 139.239 72.152 141.216" stroke="#E2E4E3" stroke-width="0.7" stroke-miterlimit="10" stroke-linecap="round" stroke-linejoin="round"/>
<path d="M64.0215 133.346C64.1484 135.307 65.7615 136.91 67.7515 136.91C69.7415 136.91 71.3547 135.307 71.3547 133.33C71.3547 131.354 69.7415 129.751 67.7515 129.751C65.7615 129.751 64.1483 131.354 64.1483 133.33" stroke="#E2E4E3" stroke-width="0.7" stroke-miterlimit="10" stroke-linecap="round" stroke-linejoin="round"/>
<path d="M64.0215 149.415C64.1239 151.236 65.7371 152.838 67.7271 152.838C69.7171 152.838 71.3303 151.236 71.3303 149.259C71.3303 147.282 69.7171 145.679 67.7271 145.679C65.7371 145.679 64.1239 147.282 64.1239 149.259" stroke="#E2E4E3" stroke-width="0.7" stroke-miterlimit="10" stroke-linecap="round" stroke-linejoin="round"/>
<path d="M56.0381 141.485C56.1192 143.35 57.7325 144.953 59.7225 144.953C61.7125 144.953 63.3258 143.35 63.3258 141.373C63.3258 139.396 61.7125 137.794 59.7225 137.794C57.7325 137.794 56.1192 139.396 56.1192 141.373" stroke="#E2E4E3" stroke-width="0.7" stroke-miterlimit="10" stroke-linecap="round" stroke-linejoin="round"/>
<path d="M56.248 157.136C56.3055 159.066 57.9187 160.669 59.9087 160.669C61.8987 160.669 63.512 159.066 63.512 157.089C63.512 155.113 61.8987 153.51 59.9087 153.51C57.9187 153.51 56.3055 155.113 56.3055 157.089" stroke="#E2E4E3" stroke-width="0.7" stroke-miterlimit="10" stroke-linecap="round" stroke-linejoin="round"/>
<path d="M48.2656 149.205C48.3018 151.181 49.9149 152.783 51.9049 152.783C53.8949 152.783 55.5081 151.181 55.5081 149.204C55.5081 147.227 53.8949 145.625 51.9049 145.625C49.9149 145.625 48.3017 147.227 48.3017 149.204" stroke="#E2E4E3" stroke-width="0.7" stroke-miterlimit="10" stroke-linecap="round" stroke-linejoin="round"/>
<path d="M104.147 41.3105L100.365 47.3628L117.172 57.5889L120.953 51.5366L104.147 41.3105Z" stroke="#E2E4E3" stroke-width="1.5" stroke-miterlimit="10" stroke-linecap="round" stroke-linejoin="round"/>
<path d="M175.995 80.5449C176.151 83.195 178.442 85.4712 181.269 85.4712C184.096 85.4712 186.387 83.195 186.387 80.387C186.387 77.5791 184.096 75.3027 181.269 75.3027C178.442 75.3027 176.151 77.5791 176.151 80.387" stroke="#E2E4E3" stroke-width="1.5" stroke-miterlimit="10" stroke-linecap="round" stroke-linejoin="round"/>
<path d="M247.423 61.5533L253.935 67.6055L286.498 34.8402L279.986 28.7882L247.423 61.5533V61.5533Z" stroke="#E2E4E3" stroke-width="1.5" stroke-miterlimit="10" stroke-linecap="round" stroke-linejoin="round"/>
<path d="M263.18 64.476L276.835 77.8324L297.003 57.589L283.348 44.2324L263.18 64.476V64.476Z" stroke="#E2E4E3" stroke-width="1.5" stroke-miterlimit="10" stroke-linecap="round" stroke-linejoin="round"/>
<path d="M276.625 106.214C276.77 109.139 279.281 111.633 282.377 111.633C285.474 111.633 287.984 109.139 287.984 106.063C287.984 102.987 285.474 100.493 282.377 100.493C279.281 100.493 276.77 102.987 276.77 106.063" stroke="#E2E4E3" stroke-width="1.5" stroke-miterlimit="10" stroke-linecap="round" stroke-linejoin="round"/>
<path d="M278.936 106.214C278.975 107.929 280.498 109.442 282.377 109.442C284.256 109.442 285.779 107.929 285.779 106.063C285.779 104.196 284.256 102.683 282.377 102.683C280.498 102.683 278.975 104.196 278.975 106.063" stroke="#E2E4E3" stroke-width="1.5" stroke-miterlimit="10" stroke-linecap="round" stroke-linejoin="round"/>
<path d="M298.053 112.893L302.044 117.067L332.506 86.5976L328.515 82.4236L298.053 112.893V112.893Z" stroke="#E2E4E3" stroke-width="1.5" stroke-miterlimit="10" stroke-linecap="round" stroke-linejoin="round"/>
<path d="M320.532 106.214C320.676 107.909 322.085 109.308 323.823 109.308C325.561 109.308 326.969 107.909 326.969 106.182C326.969 104.456 325.561 103.056 323.823 103.056C322.085 103.056 320.676 104.456 320.676 106.182" stroke="#E2E4E3" stroke-width="0.7" stroke-miterlimit="10" stroke-linecap="round" stroke-linejoin="round"/>
<path d="M335.658 115.606C335.809 117.538 337.422 119.141 339.412 119.141C341.402 119.141 343.015 117.538 343.015 115.561C343.015 113.584 341.402 111.982 339.412 111.982C337.422 111.982 335.809 113.584 335.809 115.561" stroke="#E2E4E3" stroke-width="0.7" stroke-miterlimit="10" stroke-linecap="round" stroke-linejoin="round"/>
<path d="M327.675 123.537C327.871 125.49 329.484 127.093 331.474 127.093C333.464 127.093 335.077 125.49 335.077 123.513C335.077 121.536 333.464 119.934 331.474 119.934C329.484 119.934 327.871 121.536 327.871 123.513" stroke="#E2E4E3" stroke-width="0.7" stroke-miterlimit="10" stroke-linecap="round" stroke-linejoin="round"/>
<path d="M345.531 125.206C345.595 127.18 347.208 128.782 349.198 128.782C351.188 128.782 352.802 127.18 352.802 125.203C352.802 123.226 351.188 121.624 349.198 121.624C347.208 121.624 345.595 123.226 345.595 125.203" stroke="#E2E4E3" stroke-width="0.7" stroke-miterlimit="10" stroke-linecap="round" stroke-linejoin="round"/>
<path d="M337.549 133.345C337.658 135.132 339.271 136.734 341.261 136.734C343.252 136.734 344.865 135.132 344.865 133.155C344.865 131.178 343.252 129.575 341.261 129.575C339.271 129.575 337.658 131.178 337.658 133.155" stroke="#E2E4E3" stroke-width="0.7" stroke-miterlimit="10" stroke-linecap="round" stroke-linejoin="round"/>
<path d="M353.515 133.345C353.692 135.156 355.305 136.758 357.295 136.758C359.285 136.758 360.898 135.156 360.898 133.179C360.898 131.202 359.285 129.6 357.295 129.6C355.305 129.6 353.692 131.202 353.692 133.179" stroke="#E2E4E3" stroke-width="0.7" stroke-miterlimit="10" stroke-linecap="round" stroke-linejoin="round"/>
<path d="M345.742 141.275C345.754 143.107 347.368 144.709 349.358 144.709C351.348 144.709 352.961 143.107 352.961 141.13C352.961 139.153 351.348 137.551 349.358 137.551C347.368 137.551 345.755 139.153 345.755 141.13" stroke="#E2E4E3" stroke-width="0.7" stroke-miterlimit="10" stroke-linecap="round" stroke-linejoin="round"/>
<path d="M361.498 141.067C361.576 142.922 363.189 144.524 365.179 144.524C367.169 144.524 368.782 142.922 368.782 140.945C368.782 138.968 367.169 137.366 365.179 137.366C363.189 137.366 361.576 138.968 361.576 140.945" stroke="#E2E4E3" stroke-width="0.7" stroke-miterlimit="10" stroke-linecap="round" stroke-linejoin="round"/>
<path d="M353.515 148.998C353.638 150.874 355.251 152.477 357.241 152.477C359.231 152.477 360.844 150.874 360.844 148.897C360.844 146.92 359.231 145.318 357.241 145.318C355.251 145.318 353.638 146.92 353.638 148.897" stroke="#E2E4E3" stroke-width="0.7" stroke-miterlimit="10" stroke-linecap="round" stroke-linejoin="round"/>
<path d="M248.474 97.0324L254.566 100.789L264.86 84.0933L258.768 80.3368L248.474 97.0324Z" stroke="#E2E4E3" stroke-width="1.5" stroke-miterlimit="10" stroke-linecap="round" stroke-linejoin="round"/>
<path d="M282.717 20.4416C282.848 23.1948 285.14 25.4711 287.966 25.4711C290.793 25.4711 293.084 23.1947 293.084 20.3868C293.084 17.5788 290.793 15.3025 287.966 15.3025C285.14 15.3025 282.848 17.5788 282.848 20.3868" stroke="#E2E4E3" stroke-width="1.5" stroke-miterlimit="10" stroke-linecap="round" stroke-linejoin="round"/>
<path d="M179.356 -2.51531C179.462 11.0821 190.635 22.1813 204.418 22.1813C218.2 22.1813 229.374 11.0821 229.374 -2.6095C229.374 -16.3011 218.2 -27.4003 204.418 -27.4003C190.635 -27.4003 179.462 -16.3011 179.462 -2.6095" stroke="#E2E4E3" stroke-width="1.5" stroke-miterlimit="10" stroke-linecap="round" stroke-linejoin="round"/>
</svg>
