<svg width="742" height="742" viewBox="0 0 742 742" fill="none" xmlns="http://www.w3.org/2000/svg">
<path d="M426.47 99.9928L425.702 100.633L427.438 99.743L426.47 99.9928ZM400.94 1L401.908 0.750276L401.715 2.3046e-07L400.94 2.27366e-07L400.94 1ZM343.996 1L343.996 0L341.861 -8.52345e-09L343.228 1.64009L343.996 1ZM284.047 108.821L283.702 109.759L284.761 108.12L284.047 108.821ZM212.441 35.8554L213.155 35.1549L212.612 34.6019L211.941 34.9893L212.441 35.8554ZM163.126 64.3275L162.626 63.4614L160.777 64.5288L162.781 65.266L163.126 64.3275ZM162.815 189.785L162.985 190.77L163.083 188.821L162.815 189.785ZM64.3199 162.398L64.5878 161.434L63.8413 161.227L63.4539 161.898L64.3199 162.398ZM35.8478 211.713L34.9817 211.213L33.9144 213.062L36.018 212.698L35.8478 211.713ZM99.9928 318.673L100.633 319.441L99.7431 317.705L99.9928 318.673ZM1.00002 344.203L0.750294 343.235L1.81058e-05 343.428V344.203H1.00002ZM1.00002 401.147H1.81058e-05V403.282L1.64011 401.915L1.00002 401.147ZM210.154 428.872L211.02 428.372L210.633 427.701L209.886 427.909L210.154 428.872ZM111.659 456.259L111.391 455.296L111.489 457.245L111.659 456.259ZM238.626 478.187L238.456 479.173L240.559 479.536L239.492 477.687L238.626 478.187ZM107.656 458.57L108.594 458.916L106.955 457.857L107.656 458.57ZM34.6904 530.176L33.9899 529.462L33.4369 530.005L33.8243 530.676L34.6904 530.176ZM63.1625 579.491L62.2965 579.991L63.3638 581.84L64.101 579.837L63.1625 579.491ZM260.429 500.53L260.929 499.664L260.258 499.276L259.716 499.829L260.429 500.53ZM188.823 573.495L188.11 572.795L189.169 574.434L188.823 573.495ZM309.744 529.002L310.09 529.94L312.093 529.203L310.244 528.136L309.744 529.002ZM342.775 538.391V537.391H342L341.807 538.141L342.775 538.391ZM317.245 637.384L316.277 637.134L318.014 638.024L317.245 637.384ZM399.719 538.391L400.488 539.031L401.854 537.391H399.719V538.391ZM342.775 740.999L341.807 741.249L342 741.999H342.775V740.999ZM317.245 642.006L318.014 641.366L316.277 642.256L317.245 642.006ZM399.719 740.999V741.999H401.854L400.488 740.359L399.719 740.999ZM405.963 740.999L405.195 741.639L406.912 740.682L405.963 740.999ZM372.934 642.006L373.883 641.69L373.655 641.006H372.934V642.006ZM323.489 642.006V641.006H321.355L322.721 642.646L323.489 642.006ZM372.934 637.384V638.384H373.655L373.883 637.7L372.934 637.384ZM405.963 538.391L406.912 538.708L405.195 537.751L405.963 538.391ZM323.489 637.384L322.721 636.744L321.355 638.384H323.489V637.384ZM186.512 577.498L187.498 577.328L185.549 577.23L186.512 577.498ZM159.125 675.993L158.162 675.725L157.954 676.472L158.625 676.859L159.125 675.993ZM208.44 704.465L207.94 705.331L209.789 706.399L209.426 704.295L208.44 704.465ZM213.848 707.587L212.862 707.758L214.828 707.788L213.848 707.587ZM234.74 605.343L235.72 605.543L235.864 604.837L235.24 604.477L234.74 605.343ZM191.92 580.62L192.42 579.754L190.571 578.687L190.934 580.79L191.92 580.62ZM237.051 601.339L236.551 602.205L237.175 602.566L237.715 602.088L237.051 601.339ZM315.152 532.124L315.815 532.872L314.806 531.185L315.152 532.124ZM194.231 576.617L193.885 575.678L191.882 576.416L193.731 577.483L194.231 576.617ZM66.2845 584.899L65.346 584.553L67.0329 585.562L66.2845 584.899ZM135.5 506.798L136.249 507.462L136.727 506.922L136.366 506.298L135.5 506.798ZM110.778 463.978L111.644 463.478L110.576 461.629L109.839 463.632L110.778 463.978ZM139.503 504.487L138.637 504.987L138.998 505.611L139.703 505.467L139.503 504.487ZM241.748 483.595L241.948 484.574L241.918 482.609L241.748 483.595ZM114.781 461.666L114.951 460.681L112.847 460.318L113.915 462.166L114.781 461.666ZM203.608 344.203H204.608V343.428L203.858 343.235L203.608 344.203ZM104.615 318.673L104.865 317.705L103.975 319.441L104.615 318.673ZM203.608 401.147L202.968 401.915L204.608 403.282V401.147H203.608ZM1 407.391L0.359907 406.623L1.3165 408.34L1 407.391ZM99.9928 374.362L100.309 375.311L100.993 375.083V374.362H99.9928ZM99.9928 324.917H100.993V322.782L99.3527 324.149L99.9928 324.917ZM104.615 374.362H103.615V375.083L104.299 375.311L104.615 374.362ZM203.608 407.391L203.291 408.34L204.248 406.623L203.608 407.391ZM104.615 324.917L105.255 324.149L103.615 322.782V324.917H104.615ZM239.783 263.702L240.649 264.202L241.037 263.531L240.484 262.988L239.783 263.702ZM166.818 192.096L167.519 191.382L165.88 192.441L166.818 192.096ZM211.311 313.017L210.373 313.362L211.11 315.365L212.177 313.517L211.311 313.017ZM32.7258 217.12L32.5556 216.135L32.5256 218.1L32.7258 217.12ZM134.971 238.013L134.77 238.993L135.476 239.137L135.837 238.513L134.971 238.013ZM159.693 195.192L160.559 195.692L161.626 193.843L159.523 194.207L159.693 195.192ZM138.974 240.324L138.108 239.824L137.747 240.448L138.225 240.987L138.974 240.324ZM208.189 318.424L207.441 319.088L209.128 318.079L208.189 318.424ZM163.696 197.503L164.635 197.158L163.897 195.155L162.83 197.003L163.696 197.503ZM313.745 211.319L314.245 212.185L314.916 211.797L314.709 211.051L313.745 211.319ZM286.358 112.824L287.322 112.556L285.373 112.653L286.358 112.824ZM264.43 239.791L263.445 239.621L263.081 241.724L264.93 240.657L264.43 239.791ZM157.719 67.4494L158.064 66.5109L157.055 68.1978L157.719 67.4494ZM235.819 136.665L235.156 137.414L235.695 137.891L236.319 137.531L235.819 136.665ZM278.64 111.943L279.14 112.809L280.988 111.741L278.985 111.004L278.64 111.943ZM238.13 140.668L237.63 139.802L237.006 140.162L237.151 140.868L238.13 140.668ZM259.023 242.913L258.043 243.113L260.008 243.083L259.023 242.913ZM280.951 115.946L281.936 116.116L282.3 114.012L280.451 115.08L280.951 115.946ZM400.94 203.608V204.608H401.715L401.908 203.858L400.94 203.608ZM426.47 104.615L427.438 104.865L425.702 103.975L426.47 104.615ZM343.996 203.608L343.228 202.968L341.861 204.608H343.996V203.608ZM337.752 1.00006L338.52 0.359969L336.803 1.31656L337.752 1.00006ZM370.781 99.9928L369.832 100.309L370.06 100.993H370.781V99.9928ZM420.226 99.9928V100.993H422.361L420.994 99.3527L420.226 99.9928ZM370.781 104.615V103.615H370.06L369.832 104.299L370.781 104.615ZM337.752 203.608L336.803 203.291L338.52 204.248L337.752 203.608ZM420.226 104.615L420.994 105.255L422.361 103.615H420.226V104.615ZM551.456 163.305L550.47 163.475L552.419 163.573L551.456 163.305ZM578.843 64.8099L579.806 65.0778L580.014 64.3313L579.343 63.9439L578.843 64.8099ZM529.528 36.3378L530.028 35.4718L528.179 34.4044L528.542 36.508L529.528 36.3378ZM477.539 240.274L477.039 241.14L477.71 241.527L478.253 240.974L477.539 240.274ZM549.145 167.308L549.859 168.009L548.799 166.37L549.145 167.308ZM428.224 211.801L427.878 210.863L425.875 211.6L427.724 212.667L428.224 211.801ZM524.12 33.2159L525.106 33.0457L523.141 33.0157L524.12 33.2159ZM503.228 135.461L502.248 135.26L502.104 135.966L502.728 136.327L503.228 135.461ZM546.049 160.183L545.549 161.049L547.397 162.117L547.034 160.013L546.049 160.183ZM500.917 139.464L501.417 138.598L500.793 138.238L500.254 138.715L500.917 139.464ZM422.816 208.68L422.153 207.931L423.162 209.618L422.816 208.68ZM543.737 164.186L544.083 165.125L546.086 164.388L544.237 163.32L543.737 164.186ZM632.506 281.648L631.568 281.302L633.207 282.361L632.506 281.648ZM705.472 210.042L706.172 210.756L706.725 210.213L706.338 209.542L705.472 210.042ZM677 160.727L677.866 160.227L676.798 158.378L676.061 160.381L677 160.727ZM530.008 311.346L529.142 311.846L529.529 312.517L530.276 312.309L530.008 311.346ZM628.503 283.959L628.771 284.922L628.673 282.973L628.503 283.959ZM501.536 262.03L501.706 261.045L499.603 260.682L500.67 262.53L501.536 262.03ZM673.878 155.319L674.816 155.664L673.129 154.656L673.878 155.319ZM604.662 233.42L603.913 232.756L603.435 233.296L603.796 233.92L604.662 233.42ZM629.384 276.24L628.518 276.74L629.586 278.589L630.323 276.585L629.384 276.24ZM600.659 235.731L601.525 235.231L601.165 234.607L600.459 234.751L600.659 235.731ZM498.414 256.623L498.214 255.643L498.244 257.609L498.414 256.623ZM625.381 278.551L625.211 279.537L627.315 279.9L626.247 278.051L625.381 278.551ZM642.007 427.12L641.367 426.351L642.257 428.088L642.007 427.12ZM741 401.59L741.25 402.558L742 402.365V401.59H741ZM741 344.646H742V342.511L740.36 343.877L741 344.646ZM538.392 401.59L537.392 401.59L537.392 402.365L538.142 402.558L538.392 401.59ZM637.385 427.12L637.135 428.088L638.025 426.351L637.385 427.12ZM538.392 344.646L539.032 343.877L537.392 342.511L537.392 344.646L538.392 344.646ZM741 338.402L741.64 339.17L740.683 337.453L741 338.402ZM642.007 371.431L641.691 370.482L641.007 370.71V371.431H642.007ZM642.007 420.876H641.007V423.01L642.647 421.644L642.007 420.876ZM637.385 371.431H638.385V370.71L637.701 370.482L637.385 371.431ZM538.392 338.402L538.709 337.453L537.752 339.17L538.392 338.402ZM637.385 420.876L636.745 421.644L638.385 423.01V420.876H637.385ZM578.441 554.875L578.271 553.89L578.173 555.839L578.441 554.875ZM676.936 582.262L676.668 583.226L677.415 583.433L677.802 582.762L676.936 582.262ZM705.408 532.947L706.274 533.447L707.341 531.598L705.238 531.962L705.408 532.947ZM501.473 480.958L500.606 480.458L500.219 481.129L500.772 481.672L501.473 480.958ZM574.438 552.564L573.737 553.278L575.376 552.219L574.438 552.564ZM529.945 431.643L530.883 431.298L530.146 429.295L529.079 431.143L529.945 431.643ZM708.53 527.54L708.7 528.525L708.73 526.56L708.53 527.54ZM606.285 506.647L606.486 505.667L605.78 505.523L605.419 506.147L606.285 506.647ZM581.563 549.468L580.697 548.968L579.63 550.817L581.733 550.453L581.563 549.468ZM602.282 504.336L603.148 504.836L603.509 504.212L603.031 503.673L602.282 504.336ZM533.067 426.236L533.815 425.572L532.128 426.581L533.067 426.236ZM577.56 547.157L576.621 547.502L577.358 549.505L578.426 547.657L577.56 547.157ZM461.118 631.46L461.463 630.522L460.404 632.161L461.118 631.46ZM532.724 704.426L532.01 705.126L532.553 705.679L533.224 705.292L532.724 704.426ZM582.039 675.953L582.539 676.82L584.388 675.752L582.384 675.015L582.039 675.953ZM431.42 528.962L430.92 528.096L430.249 528.483L430.456 529.23L431.42 528.962ZM458.807 627.457L457.843 627.725L459.792 627.627L458.807 627.457ZM480.735 500.49L481.72 500.66L482.084 498.557L480.235 499.624L480.735 500.49ZM587.446 672.832L587.101 673.77L588.109 672.083L587.446 672.832ZM509.346 603.616L510.009 602.867L509.47 602.389L508.846 602.75L509.346 603.616ZM466.525 628.338L466.025 627.472L464.177 628.54L466.18 629.277L466.525 628.338ZM507.035 599.613L507.535 600.479L508.159 600.118L508.014 599.412L507.035 599.613ZM486.142 497.368L487.122 497.168L485.157 497.198L486.142 497.368ZM464.214 624.335L463.229 624.165L462.865 626.269L464.714 625.201L464.214 624.335ZM427.438 99.743L401.908 0.750276L399.972 1.24972L425.502 100.242L427.438 99.743ZM343.228 1.64009L425.702 100.633L427.238 99.3527L344.764 0.359907L343.228 1.64009ZM400.94 2.27366e-07L343.996 0L343.996 2L400.94 2L400.94 2.27366e-07ZM284.761 108.12L213.155 35.1549L211.728 36.5558L283.333 109.521L284.761 108.12ZM162.781 65.266L283.702 109.759L284.392 107.882L163.471 63.389L162.781 65.266ZM211.941 34.9893L162.626 63.4614L163.626 65.1935L212.941 36.7214L211.941 34.9893ZM163.083 188.821L64.5878 161.434L64.052 163.361L162.547 190.748L163.083 188.821ZM36.018 212.698L162.985 190.77L162.645 188.799L35.6776 210.728L36.018 212.698ZM63.4539 161.898L34.9817 211.213L36.7138 212.213L65.1859 162.898L63.4539 161.898ZM99.7431 317.705L0.750294 343.235L1.24974 345.171L100.243 319.641L99.7431 317.705ZM1.64011 401.915L100.633 319.441L99.3527 317.905L0.359925 400.379L1.64011 401.915ZM1.81058e-05 344.203V401.147H2.00002V344.203H1.81058e-05ZM209.886 427.909L111.391 455.296L111.927 457.223L210.422 429.836L209.886 427.909ZM239.492 477.687L211.02 428.372L209.288 429.372L237.76 478.687L239.492 477.687ZM111.489 457.245L238.456 479.173L238.796 477.202L111.829 455.274L111.489 457.245ZM106.955 457.857L33.9899 529.462L35.3908 530.89L108.356 459.284L106.955 457.857ZM64.101 579.837L108.594 458.916L106.717 458.225L62.224 579.146L64.101 579.837ZM33.8243 530.676L62.2965 579.991L64.0285 578.991L35.5564 529.676L33.8243 530.676ZM259.716 499.829L188.11 572.795L189.537 574.195L261.143 501.23L259.716 499.829ZM310.244 528.136L260.929 499.664L259.929 501.396L309.244 529.868L310.244 528.136ZM189.169 574.434L310.09 529.94L309.399 528.063L188.478 572.557L189.169 574.434ZM341.807 538.141L316.277 637.134L318.214 637.634L343.743 538.641L341.807 538.141ZM399.719 537.391H342.775V539.391H399.719V537.391ZM318.014 638.024L400.488 539.031L398.951 537.751L316.477 636.744L318.014 638.024ZM343.743 740.749L318.214 641.756L316.277 642.256L341.807 741.249L343.743 740.749ZM399.719 739.999H342.775V741.999H399.719V739.999ZM316.477 642.646L398.951 741.639L400.488 740.359L318.014 641.366L316.477 642.646ZM406.912 740.682L373.883 641.69L371.986 642.323L405.015 741.315L406.912 740.682ZM322.721 642.646L405.195 741.639L406.732 740.359L324.258 641.366L322.721 642.646ZM372.934 641.006H323.489V643.006H372.934V641.006ZM373.883 637.7L406.912 538.708L405.015 538.075L371.986 637.067L373.883 637.7ZM323.489 638.384H372.934V636.384H323.489V638.384ZM405.195 537.751L322.721 636.744L324.258 638.024L406.732 539.031L405.195 537.751ZM185.549 577.23L158.162 675.725L160.089 676.261L187.476 577.766L185.549 577.23ZM209.426 704.295L187.498 577.328L185.527 577.668L207.455 704.636L209.426 704.295ZM158.625 676.859L207.94 705.331L208.94 703.599L159.625 675.127L158.625 676.859ZM214.828 707.788L235.72 605.543L233.76 605.142L212.868 707.387L214.828 707.788ZM190.934 580.79L212.862 707.758L214.833 707.417L192.905 580.45L190.934 580.79ZM235.24 604.477L192.42 579.754L191.42 581.486L234.24 606.209L235.24 604.477ZM237.715 602.088L315.815 532.872L314.489 531.375L236.388 600.591L237.715 602.088ZM193.731 577.483L236.551 602.205L237.551 600.473L194.731 575.751L193.731 577.483ZM314.806 531.185L193.885 575.678L194.576 577.555L315.497 533.062L314.806 531.185ZM67.0329 585.562L136.249 507.462L134.752 506.135L65.5361 584.235L67.0329 585.562ZM109.839 463.632L65.346 584.553L67.223 585.244L111.716 464.323L109.839 463.632ZM136.366 506.298L111.644 463.478L109.912 464.478L134.634 507.298L136.366 506.298ZM139.703 505.467L241.948 484.574L241.548 482.615L139.303 503.507L139.703 505.467ZM113.915 462.166L138.637 504.987L140.369 503.987L115.647 461.166L113.915 462.166ZM241.918 482.609L114.951 460.681L114.611 462.652L241.578 484.58L241.918 482.609ZM203.858 343.235L104.865 317.705L104.365 319.641L203.358 345.171L203.858 343.235ZM204.608 401.147V344.203H202.608V401.147H204.608ZM103.975 319.441L202.968 401.915L204.248 400.379L105.255 317.905L103.975 319.441ZM1.3165 408.34L100.309 375.311L99.6763 373.413L0.683501 406.442L1.3165 408.34ZM99.3527 324.149L0.359907 406.623L1.64009 408.159L100.633 325.685L99.3527 324.149ZM100.993 374.362V324.917H98.9928V374.362H100.993ZM104.299 375.311L203.291 408.34L203.924 406.442L104.932 373.413L104.299 375.311ZM103.615 324.917V374.362H105.615V324.917H103.615ZM204.248 406.623L105.255 324.149L103.975 325.685L202.968 408.159L204.248 406.623ZM240.484 262.988L167.519 191.382L166.118 192.81L239.083 264.415L240.484 262.988ZM212.177 313.517L240.649 264.202L238.917 263.202L210.445 312.517L212.177 313.517ZM165.88 192.441L210.373 313.362L212.25 312.671L167.757 191.751L165.88 192.441ZM32.5256 218.1L134.77 238.993L135.171 237.033L32.926 216.141L32.5256 218.1ZM159.523 194.207L32.5556 216.135L32.896 218.106L159.863 196.178L159.523 194.207ZM135.837 238.513L160.559 195.692L158.827 194.692L134.105 237.513L135.837 238.513ZM138.225 240.987L207.441 319.088L208.938 317.761L139.722 239.661L138.225 240.987ZM162.83 197.003L138.108 239.824L139.84 240.824L164.562 198.003L162.83 197.003ZM209.128 318.079L164.635 197.158L162.758 197.849L207.251 318.77L209.128 318.079ZM314.709 211.051L287.322 112.556L285.395 113.091L312.782 211.587L314.709 211.051ZM264.93 240.657L314.245 212.185L313.245 210.453L263.93 238.925L264.93 240.657ZM285.373 112.653L263.445 239.621L265.415 239.961L287.344 112.994L285.373 112.653ZM157.055 68.1978L235.156 137.414L236.482 135.917L158.382 66.701L157.055 68.1978ZM278.985 111.004L158.064 66.5109L157.373 68.3879L278.294 112.881L278.985 111.004ZM236.319 137.531L279.14 112.809L278.14 111.077L235.319 135.799L236.319 137.531ZM237.151 140.868L258.043 243.113L260.002 242.713L239.11 140.468L237.151 140.868ZM280.451 115.08L237.63 139.802L238.63 141.534L281.451 116.812L280.451 115.08ZM260.008 243.083L281.936 116.116L279.965 115.775L258.037 242.743L260.008 243.083ZM401.908 203.858L427.438 104.865L425.502 104.365L399.972 203.358L401.908 203.858ZM343.996 204.608H400.94V202.608H343.996V204.608ZM425.702 103.975L343.228 202.968L344.764 204.248L427.238 105.255L425.702 103.975ZM336.803 1.31656L369.832 100.309L371.73 99.6763L338.701 0.683563L336.803 1.31656ZM420.994 99.3527L338.52 0.359969L336.984 1.64015L419.458 100.633L420.994 99.3527ZM370.781 100.993H420.226V98.9928H370.781V100.993ZM369.832 104.299L336.803 203.291L338.701 203.924L371.73 104.932L369.832 104.299ZM420.226 103.615H370.781V105.615H420.226V103.615ZM338.52 204.248L420.994 105.255L419.458 103.975L336.984 202.968L338.52 204.248ZM552.419 163.573L579.806 65.0778L577.879 64.542L550.492 163.037L552.419 163.573ZM528.542 36.508L550.47 163.475L552.441 163.135L530.513 36.1676L528.542 36.508ZM579.343 63.9439L530.028 35.4718L529.028 37.2038L578.343 65.6759L579.343 63.9439ZM478.253 240.974L549.859 168.009L548.431 166.608L476.825 239.573L478.253 240.974ZM427.724 212.667L477.039 241.14L478.039 239.408L428.724 210.935L427.724 212.667ZM548.799 166.37L427.878 210.863L428.569 212.74L549.49 168.247L548.799 166.37ZM523.141 33.0157L502.248 135.26L504.208 135.661L525.1 33.4161L523.141 33.0157ZM547.034 160.013L525.106 33.0457L523.135 33.3861L545.063 160.353L547.034 160.013ZM502.728 136.327L545.549 161.049L546.549 159.317L503.728 134.595L502.728 136.327ZM500.254 138.715L422.153 207.931L423.48 209.428L501.58 140.212L500.254 138.715ZM544.237 163.32L501.417 138.598L500.417 140.33L543.237 165.052L544.237 163.32ZM423.162 209.618L544.083 165.125L543.392 163.248L422.471 207.741L423.162 209.618ZM633.207 282.361L706.172 210.756L704.771 209.328L631.806 280.934L633.207 282.361ZM676.061 160.381L631.568 281.302L633.445 281.993L677.938 161.072L676.061 160.381ZM706.338 209.542L677.866 160.227L676.133 161.227L704.606 210.542L706.338 209.542ZM530.276 312.309L628.771 284.922L628.235 282.995L529.74 310.382L530.276 312.309ZM500.67 262.53L529.142 311.846L530.874 310.846L502.402 261.53L500.67 262.53ZM628.673 282.973L501.706 261.045L501.366 263.016L628.333 284.944L628.673 282.973ZM673.129 154.656L603.913 232.756L605.41 234.083L674.626 155.982L673.129 154.656ZM630.323 276.585L674.816 155.664L672.939 154.974L628.446 275.895L630.323 276.585ZM603.796 233.92L628.518 276.74L630.25 275.74L605.528 232.92L603.796 233.92ZM600.459 234.751L498.214 255.643L498.614 257.603L600.859 236.71L600.459 234.751ZM626.247 278.051L601.525 235.231L599.793 236.231L624.515 279.051L626.247 278.051ZM498.244 257.609L625.211 279.537L625.551 277.566L498.584 255.638L498.244 257.609ZM642.257 428.088L741.25 402.558L740.75 400.621L641.757 426.151L642.257 428.088ZM740.36 343.877L641.367 426.351L642.647 427.888L741.64 345.414L740.36 343.877ZM742 401.59V344.646H740V401.59H742ZM538.142 402.558L637.135 428.088L637.635 426.151L538.642 400.621L538.142 402.558ZM537.392 344.646L537.392 401.59L539.392 401.59L539.392 344.646L537.392 344.646ZM638.025 426.351L539.032 343.877L537.752 345.414L636.745 427.888L638.025 426.351ZM740.683 337.453L641.691 370.482L642.324 372.379L741.316 339.35L740.683 337.453ZM642.647 421.644L741.64 339.17L740.36 337.633L641.367 420.107L642.647 421.644ZM641.007 371.431V420.876H643.007V371.431H641.007ZM637.701 370.482L538.709 337.453L538.076 339.35L637.068 372.379L637.701 370.482ZM638.385 420.876V371.431H636.385V420.876H638.385ZM537.752 339.17L636.745 421.644L638.025 420.107L539.032 337.633L537.752 339.17ZM578.173 555.839L676.668 583.226L677.204 581.299L578.709 553.912L578.173 555.839ZM705.238 531.962L578.271 553.89L578.611 555.861L705.578 533.932L705.238 531.962ZM677.802 582.762L706.274 533.447L704.542 532.447L676.07 581.762L677.802 582.762ZM500.772 481.672L573.737 553.278L575.138 551.85L502.173 480.245L500.772 481.672ZM529.079 431.143L500.606 480.458L502.339 481.458L530.811 432.143L529.079 431.143ZM575.376 552.219L530.883 431.298L529.006 431.989L573.499 552.91L575.376 552.219ZM708.73 526.56L606.486 505.667L606.085 507.627L708.33 528.519L708.73 526.56ZM581.733 550.453L708.7 528.525L708.36 526.554L581.393 548.482L581.733 550.453ZM605.419 506.147L580.697 548.968L582.429 549.968L607.151 507.147L605.419 506.147ZM603.031 503.673L533.815 425.572L532.318 426.899L601.534 504.999L603.031 503.673ZM578.426 547.657L603.148 504.836L601.416 503.836L576.694 546.657L578.426 547.657ZM532.128 426.581L576.621 547.502L578.498 546.811L534.005 425.89L532.128 426.581ZM460.404 632.161L532.01 705.126L533.437 703.725L461.832 630.76L460.404 632.161ZM582.384 675.015L461.463 630.522L460.773 632.399L581.693 676.892L582.384 675.015ZM533.224 705.292L582.539 676.82L581.539 675.087L532.224 703.56L533.224 705.292ZM430.456 529.23L457.843 627.725L459.77 627.189L432.383 528.694L430.456 529.23ZM480.235 499.624L430.92 528.096L431.92 529.828L481.235 501.356L480.235 499.624ZM459.792 627.627L481.72 500.66L479.749 500.32L457.821 627.287L459.792 627.627ZM588.109 672.083L510.009 602.867L508.683 604.364L586.783 673.58L588.109 672.083ZM466.18 629.277L587.101 673.77L587.792 671.893L466.871 627.4L466.18 629.277ZM508.846 602.75L466.025 627.472L467.025 629.204L509.846 604.482L508.846 602.75ZM508.014 599.412L487.122 497.168L485.163 497.568L506.055 599.813L508.014 599.412ZM464.714 625.201L507.535 600.479L506.535 598.747L463.714 623.469L464.714 625.201ZM485.157 497.198L463.229 624.165L465.199 624.505L487.128 497.538L485.157 497.198Z" fill="#1DDD98"/>
</svg>
