<svg width="240" height="97" viewBox="0 0 240 97" fill="none" xmlns="http://www.w3.org/2000/svg">
<path fill-rule="evenodd" clip-rule="evenodd" d="M56.2409 0.389205L50.1067 0L64.3621 4.92603L56.2409 0.389205ZM79.4203 8.53812L69.2169 2.24978L74.7593 3.75346L79.4203 8.53812ZM72.7771 6.73029L68.7152 2.31302L78.4924 8.35888L72.7771 6.73029ZM87.1655 12.0233L92.5275 14.7103L86.4472 7.96135L87.1655 12.0233ZM93.4641 15.1925L86.9373 8.00933L92.0377 10.4899L93.4641 15.1925ZM57.6006 4.76979L49.764 0.243876L63.4293 4.96548L57.6006 4.76979ZM86.9425 12.2815L79.5395 12.7869L91.9994 14.8197L86.9425 12.2815ZM68.2136 10.2708L79.3986 8.81015L74.9752 11.994L68.2136 10.2708ZM79.3263 13.0934L85.336 16.2199L93.3082 15.3568L79.3263 13.0934ZM67.1933 10.0117L72.5028 6.9922L78.5192 8.57777L67.1933 10.0117ZM100.039 20.0903L104.995 24.2859L103.002 16.6846L100.039 20.0903ZM88.8173 17.7547L99.6621 20.13L104.616 24.3458L88.8173 17.7547ZM103.654 17.196L105.777 24.9486L108.307 20.8376L103.654 17.196ZM94.0251 22.6401L89.4556 18.3519L105.398 25.0124L94.0251 22.6401ZM64.4485 5.41258L57.2103 10.4828L64.0613 10.4413L64.4485 5.41258ZM56.1302 10.4891L57.4475 5.19171L63.5845 5.38601L56.1302 10.4891ZM35.885 1.41228L29.1575 2.78848L48.4964 4.97203L35.885 1.41228ZM28.8206 3.18699L47.5636 5.27398L42.0484 6.8538L28.8206 3.18699ZM49.0057 5.30234L48.0213 14.076L53.8534 11.7196L49.0057 5.30234ZM114.003 37.2213L110.973 31.8646L118.489 30.5925L114.003 37.2213ZM98.1117 25.8259L113.17 37.1882L110.163 31.7976L98.1117 25.8259ZM47.0934 14.2679L42.5871 7.1744L48.2183 5.53174L47.0934 14.2679ZM118.935 30.8693L114.181 38.1551L122.61 36.1001L118.935 30.8693ZM99.4367 31.0325L97.4024 25.9625L113.582 38.2329L99.4367 31.0325ZM34.5785 10.3804L43.7709 22.1389L46.505 16.9862L34.5785 10.3804ZM30.1914 15.3697L34.0638 10.9685L43.316 22.9932L30.1914 15.3697ZM15.2828 9.77096L8.985 14.4852L33.8099 10.198L15.2828 9.77096ZM7.9299 15.2755L33.2815 10.7829L29.3264 15.1734L7.9299 15.2755ZM101.229 34.003L112.738 52.2155L113.779 45.5897L101.229 34.003ZM113.635 52.7488L114.592 46.0528L129.804 49.8358L113.635 52.7488ZM98.7899 39.522L112.565 53.3218L100.942 34.6539L98.7899 39.522ZM113.475 53.8679L129.894 50.7792L130.57 57.9134L113.475 53.8679ZM45.5925 26.338L25.7619 22.8798L48.7218 33.6651L45.5925 26.338ZM27.4246 31.4935L25.9553 23.8965L49.2359 34.8686L27.4246 31.4935ZM98.2151 42.9335L96.081 64.3972L104.745 59.7406L98.2151 42.9335ZM96.8475 65.473L105.513 60.684L127.653 76.0551L96.8475 65.473ZM54.6775 37.6821L32.2184 43.211L64.2979 44.2206L54.6775 37.6821ZM94.6526 65.1649L89.4832 45.8496L97.1649 43.2822L94.6526 65.1649ZM33.6808 44.3485L44.0844 52.4383L65.7937 45.237L33.6808 44.3485ZM62.7965 62.5763L85.4466 48.1029L77.463 64.7466L62.7965 62.5763ZM72.2201 45.6567L60.5423 62.2464L83.7789 47.7929L72.2201 45.6567ZM0.190801 41.5132L1.29537 31.2258L24.6747 22.9631L0.190801 41.5132ZM95.4187 66.2586L119.176 84.0521L126.663 76.9917L95.4187 66.2586ZM0 43.2523L24.8553 23.9869L26.2247 31.6481L0 43.2523ZM62.6569 63.8286L92.5985 96.9948L77.5151 65.9838L62.6569 63.8286ZM71.4347 95.2167L60.3726 63.499L89.9604 96.7728L71.4347 95.2167ZM15.6691 68.3428L28.5341 80.8453L31.1775 43.8913L15.6691 68.3428ZM30.5897 82.8423L32.6498 45.0462L43.1274 53.2675L30.5897 82.8423ZM146.291 48.0112L139.275 58.4864H142.658L147.789 50.2062L153.044 58.4864H156.455L149.439 47.9556L156.081 38.0221H152.85L147.913 45.5938L143.046 38.0221H139.649L146.291 48.0112ZM158.646 58.4864V38.0221H161.447V55.9023H171.625V58.4864H158.646ZM179.577 32.3316H177.305V64.6632H179.577V32.3316ZM195.337 56.4997C194.561 57.3148 193.736 57.9261 192.862 58.3336C191.988 58.7411 191.062 58.9449 190.082 58.9449C188.566 58.9449 187.382 58.5489 186.532 57.757C185.682 56.9651 185.256 55.8699 185.256 54.4714C185.256 53.1191 185.675 52.0586 186.511 51.2899C187.348 50.5211 188.621 50.0256 190.331 49.8033C190.766 49.757 191.353 49.6922 192.092 49.6088C193.359 49.4792 194.135 49.3541 194.422 49.2337C194.708 49.1226 194.898 48.9767 194.99 48.7961C195.083 48.6155 195.129 48.2242 195.129 47.6221C195.129 46.8627 194.852 46.2931 194.297 45.9133C193.742 45.5336 192.906 45.3437 191.787 45.3437C190.632 45.3437 189.761 45.5753 189.174 46.0384C188.587 46.5015 188.293 47.1868 188.293 48.0945H185.936V47.9834C185.936 46.4829 186.463 45.2974 187.516 44.4268C188.57 43.5562 190.022 43.1208 191.871 43.1208C193.858 43.1208 195.321 43.4936 196.259 44.2392C197.197 44.9848 197.667 46.1495 197.667 47.7333V55.1799C197.667 55.819 197.736 56.2311 197.875 56.4164C198.013 56.6016 198.263 56.6942 198.623 56.6942C198.697 56.6942 198.787 56.6873 198.894 56.6734C199 56.6595 199.127 56.6387 199.275 56.6109V58.542C198.97 58.6253 198.704 58.6832 198.478 58.7156C198.251 58.7481 198.036 58.7643 197.833 58.7643C197.001 58.7643 196.377 58.5837 195.961 58.2224C195.545 57.8612 195.337 57.3148 195.337 56.5831V56.4997ZM195.101 50.9148C194.436 51.276 193.294 51.5585 191.676 51.7622C191.103 51.8363 190.673 51.8965 190.387 51.9428C189.481 52.091 188.829 52.3596 188.432 52.7486C188.034 53.1376 187.835 53.7026 187.835 54.4436C187.835 55.1845 188.067 55.7541 188.529 56.1524C188.991 56.5507 189.652 56.7498 190.512 56.7498C191.852 56.7498 192.952 56.4117 193.812 55.7356C194.671 55.0595 195.101 54.1935 195.101 53.1376V50.9148ZM211.631 49.6922H203.477C203.598 48.2751 204.011 47.1961 204.718 46.4551C205.426 45.7142 206.394 45.3437 207.623 45.3437C208.899 45.3437 209.884 45.7211 210.577 46.476C211.27 47.2308 211.621 48.3029 211.631 49.6922ZM214.043 53.6795H211.575C211.381 54.6427 210.954 55.386 210.293 55.9093C209.632 56.4326 208.793 56.6942 207.776 56.6942C206.445 56.6942 205.405 56.2659 204.656 55.4091C203.907 54.5524 203.519 53.3414 203.491 51.7761H214.21C214.228 51.6372 214.24 51.4936 214.245 51.3454C214.249 51.1973 214.251 50.9703 214.251 50.6647C214.251 48.2659 213.667 46.4088 212.497 45.0936C211.328 43.7784 209.676 43.1208 207.54 43.1208C205.46 43.1208 203.829 43.834 202.645 45.2603C201.462 46.6867 200.871 48.6687 200.871 51.2065C200.871 53.6054 201.467 55.4994 202.659 56.8887C203.852 58.278 205.479 58.9727 207.54 58.9727C209.297 58.9727 210.753 58.5003 211.908 57.5556C213.064 56.6109 213.775 55.3188 214.043 53.6795ZM217.108 58.4864V43.6071H219.52V46.2745C219.918 45.2742 220.456 44.5263 221.136 44.0308C221.815 43.5353 222.65 43.2876 223.639 43.2876C223.824 43.2876 223.958 43.2899 224.041 43.2945C224.124 43.2991 224.207 43.3107 224.29 43.3292V45.9689C224.226 45.9596 224.152 45.9527 224.069 45.9481C223.985 45.9434 223.861 45.9411 223.694 45.9411C222.363 45.9411 221.348 46.3046 220.651 47.0317C219.953 47.7588 219.604 48.8169 219.604 50.2062V58.4864H217.108ZM229.51 55.2563C228.72 54.2792 228.325 52.869 228.325 51.0259C228.325 49.1828 228.718 47.775 229.503 46.8025C230.289 45.83 231.421 45.3437 232.901 45.3437C234.361 45.3437 235.48 45.8323 236.256 46.8094C237.033 47.7865 237.421 49.192 237.421 51.0259C237.421 52.869 237.033 54.2792 236.256 55.2563C235.48 56.2334 234.361 56.722 232.901 56.722C231.431 56.722 230.301 56.2334 229.51 55.2563ZM227.638 45.2048C226.395 46.5941 225.773 48.5345 225.773 51.0259C225.773 53.5359 226.397 55.4832 227.645 56.8679C228.893 58.2525 230.645 58.9449 232.901 58.9449C235.147 58.9449 236.892 58.2502 238.135 56.8609C239.378 55.4716 240 53.5266 240 51.0259C240 48.5252 239.376 46.5825 238.128 45.1978C236.88 43.8132 235.128 43.1208 232.873 43.1208C230.626 43.1208 228.882 43.8155 227.638 45.2048Z" fill="#17AF78"/>
</svg>
