<svg width="280" height="114" viewBox="0 0 280 114" fill="none" xmlns="http://www.w3.org/2000/svg">
<g clip-path="url(#clip0)">
<path fill-rule="evenodd" clip-rule="evenodd" d="M92.6569 9.96112L80.7529 2.62473L87.219 4.37902L92.6569 9.96112Z" fill="#777776"/>
<path fill-rule="evenodd" clip-rule="evenodd" d="M84.9066 7.85199L80.1677 2.69852L91.5744 9.75202L84.9066 7.85199Z" fill="#488966"/>
<path fill-rule="evenodd" clip-rule="evenodd" d="M107.949 17.162L101.693 14.0272L100.855 9.28824L107.949 17.162Z" fill="#007343"/>
<path fill-rule="evenodd" clip-rule="evenodd" d="M109.042 17.7245L101.427 9.34421L107.377 12.2382L109.042 17.7245Z" fill="#5B5C5A"/>
<path fill-rule="evenodd" clip-rule="evenodd" d="M58.4578 0L65.6144 0.454072L75.0891 5.74703L58.4578 0Z" fill="#777776"/>
<path fill-rule="evenodd" clip-rule="evenodd" d="M67.2008 5.56478L58.0581 0.284546L74.001 5.79309L67.2008 5.56478Z" fill="#2E9D64"/>
<path fill-rule="evenodd" clip-rule="evenodd" d="M92.7961 14.918L101.433 14.3284L107.333 17.2897L92.7961 14.918Z" fill="#5B5C5A"/>
<path fill-rule="evenodd" clip-rule="evenodd" d="M79.5825 11.9826L92.6317 10.2785L87.4711 13.993L79.5825 11.9826Z" fill="#488966"/>
<path fill-rule="evenodd" clip-rule="evenodd" d="M99.5587 18.9232L92.5474 15.2756L108.86 17.9163L99.5587 18.9232Z" fill="#007343"/>
<path fill-rule="evenodd" clip-rule="evenodd" d="M78.3921 11.6803L84.5865 8.15756L91.6057 10.0074L78.3921 11.6803Z" fill="#777776"/>
<path fill-rule="evenodd" clip-rule="evenodd" d="M122.494 28.3336L116.712 23.4387L120.169 19.4654L122.494 28.3336Z" fill="#488966"/>
<path fill-rule="evenodd" clip-rule="evenodd" d="M103.62 20.7138L116.272 23.485L122.052 28.4035L103.62 20.7138Z" fill="#414140"/>
<path fill-rule="evenodd" clip-rule="evenodd" d="M123.406 29.1066L120.93 20.062L126.358 24.3106L123.406 29.1066Z" fill="#414140"/>
<path fill-rule="evenodd" clip-rule="evenodd" d="M109.696 26.4134L104.365 21.4106L122.965 29.1811L109.696 26.4134Z" fill="#488966"/>
<path fill-rule="evenodd" clip-rule="evenodd" d="M66.7454 12.2299L75.1899 6.3147L74.7382 12.1815L66.7454 12.2299Z" fill="#2E9D64"/>
<path fill-rule="evenodd" clip-rule="evenodd" d="M65.4851 12.2373L67.022 6.05698L74.1818 6.28367L65.4851 12.2373Z" fill="#777776"/>
<path fill-rule="evenodd" clip-rule="evenodd" d="M34.0171 3.25323L41.8658 1.64767L56.5792 5.80071L34.0171 3.25323Z" fill="#8A8B8A"/>
<path fill-rule="evenodd" clip-rule="evenodd" d="M33.624 3.71817L55.4908 6.15299L49.0565 7.99612L33.624 3.71817Z" fill="#5EBCA9"/>
<path fill-rule="evenodd" clip-rule="evenodd" d="M56.0249 16.422L57.1733 6.18607L62.829 13.6728L56.0249 16.422Z" fill="#5EBCA9"/>
<path fill-rule="evenodd" clip-rule="evenodd" d="M133.004 43.4248L129.468 37.1754L138.237 35.6913L133.004 43.4248Z" fill="#2E9D64"/>
<path fill-rule="evenodd" clip-rule="evenodd" d="M132.032 43.3862L114.464 30.1302L128.524 37.0972L132.032 43.3862Z" fill="#5B5C5A"/>
<path fill-rule="evenodd" clip-rule="evenodd" d="M54.9422 16.6459L49.6848 8.37015L56.2545 6.4537L54.9422 16.6459Z" fill="#777776"/>
<path fill-rule="evenodd" clip-rule="evenodd" d="M133.211 44.5143L138.757 36.0142L143.045 42.1168L133.211 44.5143Z" fill="#5B5C5A"/>
<path fill-rule="evenodd" clip-rule="evenodd" d="M116.01 36.2045L113.636 30.2896L132.512 44.605L116.01 36.2045Z" fill="#2E9D64"/>
<path fill-rule="evenodd" clip-rule="evenodd" d="M51.066 25.8287L40.3416 12.1105L54.2558 19.8172L51.066 25.8287Z" fill="#5EBCA9"/>
<path fill-rule="evenodd" clip-rule="evenodd" d="M35.2234 17.9313L39.7412 12.7966L50.5354 26.8254L35.2234 17.9313Z" fill="#8A8B8A"/>
<path fill-rule="evenodd" clip-rule="evenodd" d="M10.4824 16.8994L17.8299 11.3994L39.4448 11.8977L10.4824 16.8994Z" fill="#8A8B8A"/>
<path fill-rule="evenodd" clip-rule="evenodd" d="M9.25146 17.8215L38.8284 12.5801L34.2141 17.7023L9.25146 17.8215Z" fill="#5EBCA9"/>
<path fill-rule="evenodd" clip-rule="evenodd" d="M131.528 60.9181L118.101 39.6701L132.742 53.188L131.528 60.9181Z" fill="#777776"/>
<path fill-rule="evenodd" clip-rule="evenodd" d="M132.574 61.5403L133.691 53.7283L151.438 58.1418L132.574 61.5403Z" fill="#5EBCA9"/>
<path fill-rule="evenodd" clip-rule="evenodd" d="M131.325 62.2088L115.255 46.109L117.765 40.4295L131.325 62.2088Z" fill="#5EBCA9"/>
<path fill-rule="evenodd" clip-rule="evenodd" d="M132.388 62.8458L151.543 59.2424L152.332 67.5656L132.388 62.8458Z" fill="#777776"/>
<path fill-rule="evenodd" clip-rule="evenodd" d="M30.0557 26.6931L53.1913 30.7277L56.8423 39.2759L30.0557 26.6931Z" fill="#7BC29A"/>
<path fill-rule="evenodd" clip-rule="evenodd" d="M31.9954 36.7423L30.2812 27.8793L57.442 40.68L31.9954 36.7423Z" fill="#9E9F9E"/>
<path fill-rule="evenodd" clip-rule="evenodd" d="M112.094 75.1301L114.584 50.089L122.203 69.6974L112.094 75.1301Z" fill="#777776"/>
<path fill-rule="evenodd" clip-rule="evenodd" d="M112.989 76.3852L123.099 70.798L148.928 88.7309L112.989 76.3852Z" fill="#5EBCA9"/>
<path fill-rule="evenodd" clip-rule="evenodd" d="M37.5881 50.4129L63.7904 43.9624L75.0142 51.5907L37.5881 50.4129Z" fill="#97CFBE"/>
<path fill-rule="evenodd" clip-rule="evenodd" d="M110.428 76.0257L104.397 53.4912L113.359 50.4959L110.428 76.0257Z" fill="#5EBCA9"/>
<path fill-rule="evenodd" clip-rule="evenodd" d="M51.4316 61.1781L39.2942 51.7399L76.7592 52.7765L51.4316 61.1781Z" fill="#BFC0BF"/>
<path fill-rule="evenodd" clip-rule="evenodd" d="M73.2625 73.0057L99.6876 56.1201L90.3734 75.5377L73.2625 73.0057Z" fill="#9E9F9E"/>
<path fill-rule="evenodd" clip-rule="evenodd" d="M70.6328 72.6208L84.2569 53.2661L97.7422 55.7583L70.6328 72.6208Z" fill="#7BC29A"/>
<path fill-rule="evenodd" clip-rule="evenodd" d="M0.222656 48.4321L1.51132 36.4301L28.7872 26.7903L0.222656 48.4321Z" fill="#9E9F9E"/>
<path fill-rule="evenodd" clip-rule="evenodd" d="M139.038 98.0608L111.322 77.3016L147.774 89.8237L139.038 98.0608Z" fill="#777776"/>
<path fill-rule="evenodd" clip-rule="evenodd" d="M0 50.461L28.9978 27.9847L30.5955 36.9228L0 50.461Z" fill="#7BC29A"/>
<path fill-rule="evenodd" clip-rule="evenodd" d="M108.032 113.161L73.0999 74.4666L90.4343 76.981L108.032 113.161Z" fill="#7BC29A"/>
<path fill-rule="evenodd" clip-rule="evenodd" d="M83.3406 111.086L70.4348 74.0822L104.954 112.902L83.3406 111.086Z" fill="#9E9F9E"/>
<path fill-rule="evenodd" clip-rule="evenodd" d="M33.2898 94.3195L18.2805 79.7332L36.3736 51.2065L33.2898 94.3195Z" fill="#BFC0BF"/>
<path fill-rule="evenodd" clip-rule="evenodd" d="M35.688 96.6493L38.0915 52.5539L50.3153 62.1454L35.688 96.6493Z" fill="#97CFBE"/>
<path fill-rule="evenodd" clip-rule="evenodd" d="M162.487 68.2342L170.673 56.013L162.924 44.3592H166.887L172.566 53.1928L178.325 44.3592H182.094L174.345 55.9482L182.531 68.2342H178.551L172.42 58.574L166.434 68.2342H162.487Z" fill="#5B5C5A"/>
<path fill-rule="evenodd" clip-rule="evenodd" d="M185.087 68.2342V44.3592H188.355V65.2194H200.229V68.2342H185.087Z" fill="#5B5C5A"/>
<path fill-rule="evenodd" clip-rule="evenodd" d="M206.855 37.7202H209.506V75.4404H206.855V37.7202Z" fill="#5B5C5A"/>
<path fill-rule="evenodd" clip-rule="evenodd" d="M227.893 65.9164C226.987 66.8673 226.025 67.5804 225.006 68.0559C223.986 68.5313 222.905 68.7691 221.762 68.7691C219.993 68.7691 218.613 68.3071 217.621 67.3832C216.628 66.4594 216.132 65.1816 216.132 63.5499C216.132 61.9723 216.62 60.7351 217.596 59.8382C218.572 58.9414 220.058 58.3633 222.053 58.1039C222.56 58.0499 223.245 57.9743 224.108 57.877C225.585 57.7257 226.491 57.5799 226.826 57.4394C227.16 57.3097 227.381 57.1395 227.489 56.9288C227.597 56.7181 227.651 56.2616 227.651 55.5592C227.651 54.6731 227.327 54.0086 226.68 53.5656C226.033 53.1225 225.057 52.901 223.752 52.901C222.404 52.901 221.387 53.1712 220.702 53.7114C220.018 54.2517 219.675 55.0513 219.675 56.1103H216.925V55.9806C216.925 54.2301 217.54 52.847 218.769 51.8313C219.999 50.8155 221.692 50.3077 223.849 50.3077C226.168 50.3077 227.874 50.7426 228.969 51.6125C230.064 52.4823 230.611 53.8411 230.611 55.6889V64.3766C230.611 65.1222 230.692 65.603 230.854 65.8191C231.015 66.0352 231.307 66.1433 231.727 66.1433C231.814 66.1433 231.919 66.1352 232.043 66.119C232.167 66.1028 232.315 66.0785 232.488 66.046V68.299C232.132 68.3963 231.822 68.4638 231.557 68.5016C231.293 68.5394 231.042 68.5583 230.805 68.5583C229.834 68.5583 229.107 68.3476 228.621 67.9262C228.136 67.5048 227.893 66.8673 227.893 66.0136V65.9164ZM227.618 59.4006C226.842 59.822 225.51 60.1516 223.622 60.3893C222.954 60.4758 222.452 60.546 222.118 60.6C221.061 60.7729 220.301 61.0863 219.837 61.5401C219.373 61.9939 219.141 62.6531 219.141 63.5175C219.141 64.382 219.411 65.0465 219.95 65.5112C220.489 65.9758 221.261 66.2081 222.264 66.2081C223.827 66.2081 225.111 65.8137 226.114 65.0249C227.117 64.2361 227.618 63.2258 227.618 61.9939V59.4006Z" fill="#5B5C5A"/>
<path fill-rule="evenodd" clip-rule="evenodd" d="M237.39 57.9743H246.902C246.892 56.3534 246.482 55.1027 245.673 54.222C244.864 53.3414 243.716 52.901 242.227 52.901C240.793 52.901 239.663 53.3332 238.838 54.1977C238.013 55.0621 237.53 56.321 237.39 57.9743ZM246.838 62.6261H249.717C249.405 64.5387 248.574 66.046 247.226 67.1482C245.878 68.2504 244.179 68.8015 242.13 68.8015C239.725 68.8015 237.827 67.991 236.436 66.3702C235.044 64.7494 234.349 62.5396 234.349 59.741C234.349 56.7802 235.039 54.4678 236.42 52.8038C237.8 51.1397 239.704 50.3077 242.13 50.3077C244.621 50.3077 246.549 51.0749 247.914 52.6093C249.278 54.1437 249.96 56.3102 249.96 59.1088C249.96 59.4654 249.957 59.7302 249.952 59.9031C249.946 60.0759 249.933 60.2434 249.911 60.4055H237.406C237.439 62.2317 237.892 63.6445 238.765 64.644C239.639 65.6435 240.852 66.1433 242.405 66.1433C243.592 66.1433 244.57 65.838 245.341 65.2275C246.112 64.617 246.611 63.7498 246.838 62.6261Z" fill="#5B5C5A"/>
<path fill-rule="evenodd" clip-rule="evenodd" d="M253.292 68.2342V50.875H256.107V53.987C256.571 52.82 257.199 51.9474 257.992 51.3693C258.784 50.7912 259.758 50.5022 260.912 50.5022C261.127 50.5022 261.284 50.5049 261.381 50.5103C261.478 50.5157 261.575 50.5292 261.672 50.5508V53.6304C261.597 53.6196 261.51 53.6115 261.413 53.6061C261.316 53.6007 261.171 53.598 260.976 53.598C259.423 53.598 258.24 54.0221 257.426 54.8703C256.611 55.7186 256.204 56.9531 256.204 58.574V68.2342H253.292Z" fill="#5B5C5A"/>
<path fill-rule="evenodd" clip-rule="evenodd" d="M266.379 59.5303C266.379 61.6806 266.84 63.3257 267.762 64.4657C268.684 65.6057 270.002 66.1757 271.717 66.1757C273.421 66.1757 274.726 65.6057 275.632 64.4657C276.538 63.3257 276.991 61.6806 276.991 59.5303C276.991 57.3908 276.538 55.751 275.632 54.611C274.726 53.471 273.421 52.901 271.717 52.901C269.992 52.901 268.671 53.4683 267.754 54.6029C266.837 55.7375 266.379 57.3799 266.379 59.5303ZM263.402 59.5303C263.402 56.6236 264.127 54.3598 265.578 52.7389C267.029 51.1181 269.064 50.3077 271.685 50.3077C274.316 50.3077 276.36 51.1154 277.816 52.7308C279.272 54.3463 280 56.6128 280 59.5303C280 62.4478 279.275 64.717 277.824 66.3378C276.374 67.9586 274.338 68.7691 271.717 68.7691C269.086 68.7691 267.042 67.9613 265.586 66.3459C264.13 64.7305 263.402 62.4586 263.402 59.5303Z" fill="#5B5C5A"/>
</g>
<defs>
<clipPath id="clip0">
<rect width="280" height="113.161" fill="white"/>
</clipPath>
</defs>
</svg>
